<svg xmlns="http://www.w3.org/2000/svg" xmlns:xlink="http://www.w3.org/1999/xlink" width="1440" height="338" viewBox="0 0 1440 338">
    <defs>
        <path id="a" d="M0 0h1440v343H0z"/>
        <path id="c" d="M.163.68h7.532v7.527H.163z"/>
        <path id="e" d="M0 .94h7.263v7.25H0z"/>
    </defs>
    <g fill="none" fill-rule="evenodd">
        <mask id="b" fill="#fff">
            <use xlink:href="#a"/>
        </mask>
        <use fill="#F9F9F9" xlink:href="#a"/>
        <g mask="url(#b)" opacity=".05">
            <path fill="#000" d="M833.236 272a3.507 3.507 0 0 0-3.507 3.498 3.508 3.508 0 0 0 3.507 3.502 3.511 3.511 0 0 0 3.507-3.502 3.51 3.51 0 0 0-3.507-3.498M818.205 189a3.51 3.51 0 0 0-3.508 3.498 3.511 3.511 0 0 0 3.508 3.502 3.508 3.508 0 0 0 3.507-3.502 3.507 3.507 0 0 0-3.507-3.498"/>
            <path fill="#000" d="M820.21 194a3.508 3.508 0 0 0-3.509 3.502 3.507 3.507 0 0 0 3.51 3.498c1.925 0 3.505-1.575 3.505-3.498a3.516 3.516 0 0 0-3.505-3.502M817.207 186a3.51 3.51 0 0 0-3.512 3.498 3.51 3.51 0 0 0 3.512 3.502 3.503 3.503 0 0 0 3.503-3.502 3.502 3.502 0 0 0-3.503-3.498"/>
            <path fill="#000" d="M814.198 189a3.508 3.508 0 0 0-3.51 3.507 3.505 3.505 0 0 0 3.51 3.493c1.925 0 3.506-1.569 3.506-3.493a3.512 3.512 0 0 0-3.506-3.507M821.213 201c-1.929 0-3.51 1.567-3.51 3.493a3.517 3.517 0 0 0 3.51 3.507 3.508 3.508 0 0 0 3.505-3.507 3.5 3.5 0 0 0-3.505-3.493M823.215 210a3.506 3.506 0 0 0-3.507 3.507 3.498 3.498 0 0 0 3.507 3.493c1.923 0 3.507-1.56 3.507-3.493a3.515 3.515 0 0 0-3.507-3.507M828.225 236a3.51 3.51 0 0 0-3.507 3.502 3.509 3.509 0 0 0 3.507 3.498 3.5 3.5 0 1 0 0-7M825.221 222c-1.929 0-3.51 1.569-3.51 3.498a3.512 3.512 0 0 0 3.51 3.502 3.511 3.511 0 0 0 3.506-3.502A3.51 3.51 0 0 0 825.22 222"/>
            <path fill="#000" d="M816.2 186a3.51 3.51 0 0 0-3.507 3.507A3.5 3.5 0 0 0 816.2 193a3.498 3.498 0 0 0 3.508-3.493A3.506 3.506 0 0 0 816.2 186M844.261 185c-1.929 0-3.51 1.569-3.51 3.498a3.512 3.512 0 0 0 3.51 3.502 3.506 3.506 0 0 0 3.505-3.502 3.505 3.505 0 0 0-3.505-3.498"/>
            <path fill="#000" d="M841.253 187a3.507 3.507 0 0 0-3.508 3.498 3.508 3.508 0 0 0 3.508 3.502 3.511 3.511 0 0 0 3.507-3.502 3.51 3.51 0 0 0-3.507-3.498M855.28 219a3.512 3.512 0 0 0-3.505 3.507c0 1.924 1.58 3.493 3.505 3.493 1.929 0 3.51-1.569 3.51-3.493a3.513 3.513 0 0 0-3.51-3.507M852.273 208a3.516 3.516 0 0 0-3.505 3.502c0 1.923 1.58 3.498 3.505 3.498 1.93 0 3.51-1.575 3.51-3.498a3.517 3.517 0 0 0-3.51-3.502"/>
            <path fill="#000" d="M846.263 187a3.51 3.51 0 0 0-3.507 3.507c0 1.924 1.575 3.493 3.507 3.493 1.928 0 3.507-1.569 3.507-3.493a3.512 3.512 0 0 0-3.507-3.507M850.274 198a3.506 3.506 0 0 0-3.51 3.498 3.507 3.507 0 0 0 7.015 0 3.51 3.51 0 0 0-3.505-3.498"/>
            <path fill="#000" d="M848.272 192a3.498 3.498 0 0 0-3.512 3.498 3.505 3.505 0 0 0 3.512 3.502 3.5 3.5 0 1 0 0-7M842.255 185a3.51 3.51 0 0 0-3.508 3.498 3.517 3.517 0 0 0 3.508 3.502 3.514 3.514 0 0 0 3.507-3.502 3.507 3.507 0 0 0-3.507-3.498M865.3 269a3.518 3.518 0 0 0-3.505 3.507c0 1.924 1.581 3.493 3.506 3.493a3.502 3.502 0 0 0 3.509-3.493A3.51 3.51 0 0 0 865.3 269M869.311 290a3.513 3.513 0 0 0-3.507 3.502A3.512 3.512 0 0 0 869.31 297a3.509 3.509 0 0 0 3.507-3.498 3.51 3.51 0 0 0-3.507-3.502M861.297 250a3.517 3.517 0 0 0-3.51 3.502c0 1.923 1.58 3.498 3.51 3.498a3.506 3.506 0 0 0 3.505-3.498 3.507 3.507 0 0 0-3.505-3.502M873.32 313a3.512 3.512 0 0 0-3.508 3.502A3.506 3.506 0 0 0 873.32 320a3.506 3.506 0 0 0 3.508-3.498 3.512 3.512 0 0 0-3.508-3.502M858.288 233a3.507 3.507 0 0 0-3.507 3.498 3.508 3.508 0 0 0 3.507 3.502 3.511 3.511 0 0 0 3.507-3.502 3.51 3.51 0 0 0-3.507-3.498M830.23 253a3.51 3.51 0 0 0-3.508 3.502A3.509 3.509 0 0 0 830.23 260a3.512 3.512 0 0 0 3.507-3.498A3.513 3.513 0 0 0 830.23 253M795.157 224a3.512 3.512 0 0 0-3.508 3.507c0 1.924 1.58 3.493 3.508 3.493 1.932 0 3.507-1.569 3.507-3.493a3.51 3.51 0 0 0-3.507-3.507M794.154 212a3.518 3.518 0 0 0-3.507 3.507c0 1.924 1.58 3.493 3.507 3.493a3.504 3.504 0 0 0 3.508-3.493c0-1.93-1.571-3.507-3.508-3.507M793.152 202a3.51 3.51 0 0 0-3.507 3.507c0 1.924 1.575 3.493 3.507 3.493 1.928 0 3.508-1.569 3.508-3.493a3.512 3.512 0 0 0-3.508-3.507M790.146 190a3.507 3.507 0 0 0-3.507 3.502 3.511 3.511 0 0 0 3.507 3.498 3.509 3.509 0 0 0 3.507-3.498 3.504 3.504 0 0 0-3.507-3.502"/>
            <path fill="#000" d="M791.148 195a3.507 3.507 0 0 0-3.507 3.498 3.508 3.508 0 0 0 7.015 0c0-1.93-1.571-3.498-3.508-3.498M790.146 188a3.51 3.51 0 0 0-3.507 3.507c0 1.924 1.575 3.493 3.507 3.493 1.928 0 3.507-1.569 3.507-3.493a3.512 3.512 0 0 0-3.507-3.507M797.16 238a3.512 3.512 0 0 0-3.507 3.507c0 1.924 1.58 3.493 3.508 3.493 1.927 0 3.507-1.569 3.507-3.493a3.512 3.512 0 0 0-3.507-3.507M802.173 296a3.508 3.508 0 0 0-3.51 3.507 3.505 3.505 0 0 0 3.51 3.493 3.504 3.504 0 0 0 3.505-3.493 3.507 3.507 0 0 0-3.505-3.507M800.171 275a3.511 3.511 0 0 0-3.511 3.507A3.503 3.503 0 0 0 800.17 282a3.507 3.507 0 0 0 3.503-3.493 3.515 3.515 0 0 0-3.503-3.507M836.24 293a3.505 3.505 0 0 0-3.505 3.498A3.506 3.506 0 0 0 836.24 300a3.507 3.507 0 0 0 3.51-3.502 3.506 3.506 0 0 0-3.51-3.498"/>
            <path fill="#000" d="M789.144 187a3.51 3.51 0 0 0-3.507 3.507 3.497 3.497 0 0 0 3.507 3.493c1.93 0 3.507-1.56 3.507-3.493a3.516 3.516 0 0 0-3.507-3.507M804.18 320a3.504 3.504 0 0 0-3.512 3.498A3.505 3.505 0 0 0 804.18 327a3.506 3.506 0 0 0 3.503-3.502A3.505 3.505 0 0 0 804.18 320M787.14 194a3.51 3.51 0 0 0-3.507 3.507c0 1.924 1.575 3.493 3.507 3.493 1.928 0 3.507-1.569 3.507-3.493A3.512 3.512 0 0 0 787.14 194"/>
            <path fill="#000" d="M788.144 189a3.508 3.508 0 0 0-3.51 3.507 3.505 3.505 0 0 0 3.51 3.493 3.504 3.504 0 0 0 3.505-3.493 3.507 3.507 0 0 0-3.505-3.507M798.167 255a3.511 3.511 0 0 0-3.511 3.51c0 1.915 1.568 3.49 3.511 3.49 1.93 0 3.503-1.575 3.503-3.49a3.512 3.512 0 0 0-3.503-3.51M839.248 317a3.517 3.517 0 0 0-3.507 3.51c0 1.923 1.58 3.49 3.507 3.49 1.928 0 3.508-1.567 3.508-3.49 0-1.935-1.58-3.51-3.508-3.51M925.43 177a3.503 3.503 0 0 0-3.51 3.498 3.508 3.508 0 0 0 7.015 0A3.508 3.508 0 0 0 925.43 177M947.474 326a3.507 3.507 0 0 0-3.507 3.498 3.508 3.508 0 0 0 7.014 0c0-1.93-1.57-3.498-3.507-3.498M934.449 279a3.513 3.513 0 0 0-3.51 3.507 3.505 3.505 0 0 0 3.51 3.493 3.504 3.504 0 0 0 3.505-3.493A3.512 3.512 0 0 0 934.45 279M929.436 259a3.51 3.51 0 0 0-3.507 3.498 3.517 3.517 0 0 0 3.507 3.502 3.514 3.514 0 0 0 3.508-3.502 3.507 3.507 0 0 0-3.508-3.498M941.461 301a3.506 3.506 0 0 0-3.507 3.507 3.504 3.504 0 0 0 3.507 3.493c1.932 0 3.508-1.569 3.508-3.493A3.51 3.51 0 0 0 941.46 301M896.367 181a3.51 3.51 0 0 0-3.507 3.507c0 1.924 1.575 3.493 3.507 3.493 1.932 0 3.508-1.569 3.508-3.493a3.51 3.51 0 0 0-3.508-3.507"/>
            <path fill="#000" d="M901.378 182a3.514 3.514 0 0 0-3.507 3.502 3.513 3.513 0 0 0 3.507 3.498 3.505 3.505 0 0 0 3.507-3.498 3.506 3.506 0 0 0-3.507-3.502"/>
            <path fill="#000" d="M898.372 180a3.51 3.51 0 0 0-3.508 3.498 3.511 3.511 0 0 0 3.508 3.502 3.508 3.508 0 0 0 3.507-3.502 3.507 3.507 0 0 0-3.507-3.498M904.384 186a3.512 3.512 0 0 0-3.507 3.507c0 1.924 1.58 3.493 3.507 3.493 1.928 0 3.507-1.569 3.507-3.493a3.512 3.512 0 0 0-3.507-3.507"/>
            <path fill="#000" d="M894.363 184a3.51 3.51 0 0 0-3.507 3.498 3.511 3.511 0 0 0 3.507 3.502 3.514 3.514 0 0 0 3.508-3.502c0-1.93-1.584-3.498-3.508-3.498M907.39 192a3.51 3.51 0 0 0-3.507 3.51 3.5 3.5 0 0 0 3.507 3.49c1.93 0 3.508-1.567 3.508-3.49a3.516 3.516 0 0 0-3.508-3.51M915.41 212a3.505 3.505 0 0 0-3.51 3.502 3.51 3.51 0 0 0 3.51 3.498 3.51 3.51 0 0 0 3.504-3.498A3.504 3.504 0 0 0 915.41 212M919.418 225a3.508 3.508 0 0 0-3.51 3.507 3.505 3.505 0 0 0 3.51 3.493 3.504 3.504 0 0 0 3.505-3.493 3.507 3.507 0 0 0-3.505-3.507M911.403 201a3.509 3.509 0 0 0-3.512 3.507c0 1.924 1.573 3.493 3.512 3.493a3.501 3.501 0 0 0 3.503-3.493 3.504 3.504 0 0 0-3.503-3.507M924.426 241a3.51 3.51 0 0 0-3.507 3.498 3.511 3.511 0 0 0 3.507 3.502 3.508 3.508 0 0 0 3.507-3.502 3.507 3.507 0 0 0-3.507-3.498M967.516 272a3.506 3.506 0 0 0-3.508 3.507c0 1.916 1.571 3.493 3.508 3.493 1.927 0 3.507-1.577 3.507-3.493a3.512 3.512 0 0 0-3.507-3.507M960.497 252a3.499 3.499 0 0 0-3.503 3.502 3.498 3.498 0 0 0 3.503 3.498 3.502 3.502 0 0 0 3.511-3.498 3.503 3.503 0 0 0-3.511-3.502M954.489 235a3.51 3.51 0 0 0-3.508 3.507c0 1.924 1.575 3.493 3.508 3.493 1.927 0 3.507-1.569 3.507-3.493a3.512 3.512 0 0 0-3.507-3.507M949.48 220a3.511 3.511 0 0 0-3.51 3.498 3.507 3.507 0 0 0 7.015 0c0-1.92-1.58-3.498-3.505-3.498M944.465 207a3.508 3.508 0 0 0-3.505 3.498 3.508 3.508 0 0 0 3.505 3.502 3.512 3.512 0 0 0 3.51-3.502c0-1.93-1.58-3.498-3.51-3.498M974.526 294a3.504 3.504 0 0 0-3.503 3.507 3.501 3.501 0 0 0 3.503 3.493c1.934 0 3.512-1.569 3.512-3.493a3.511 3.511 0 0 0-3.512-3.507M939.457 196c-1.923 0-3.507 1.569-3.507 3.498a3.514 3.514 0 0 0 3.507 3.502 3.506 3.506 0 0 0 3.508-3.502c0-1.93-1.571-3.498-3.508-3.498M931.44 182a3.507 3.507 0 0 0-3.507 3.498 3.508 3.508 0 0 0 3.508 3.502 3.511 3.511 0 0 0 3.507-3.502A3.51 3.51 0 0 0 931.44 182"/>
            <path fill="#000" d="M928.434 179a3.512 3.512 0 0 0-3.507 3.507c0 1.924 1.58 3.493 3.507 3.493 1.932 0 3.508-1.569 3.508-3.493a3.51 3.51 0 0 0-3.508-3.507M935.449 188a3.51 3.51 0 0 0-3.507 3.507 3.5 3.5 0 0 0 3.507 3.493c1.928 0 3.507-1.56 3.507-3.493A3.512 3.512 0 0 0 935.45 188"/>
            <path fill="#000" d="M922.42 178a3.512 3.512 0 0 0-3.506 3.507A3.504 3.504 0 0 0 922.42 185c1.928 0 3.509-1.569 3.509-3.493 0-1.93-1.58-3.507-3.51-3.507M981.545 318a3.507 3.507 0 0 0-3.507 3.498 3.508 3.508 0 0 0 7.014 0 3.507 3.507 0 0 0-3.507-3.498M912.4 333a3.512 3.512 0 0 0-3.506 3.507c0 1.924 1.58 3.493 3.507 3.493 1.932 0 3.507-1.569 3.507-3.493a3.51 3.51 0 0 0-3.507-3.507M879.332 196a3.515 3.515 0 0 0-3.507 3.507 3.5 3.5 0 0 0 3.507 3.493c1.928 0 3.507-1.56 3.507-3.493 0-1.93-1.58-3.507-3.507-3.507M873.32 185a3.512 3.512 0 0 0-3.508 3.507c0 1.924 1.58 3.493 3.507 3.493 1.924 0 3.508-1.569 3.508-3.493a3.515 3.515 0 0 0-3.508-3.507M885.342 216a3.507 3.507 0 0 0-3.505 3.502 3.5 3.5 0 0 0 3.505 3.498 3.501 3.501 0 0 0 3.51-3.498 3.508 3.508 0 0 0-3.51-3.502"/>
            <path fill="#000" d="M876.328 189a3.514 3.514 0 0 0-3.51 3.502c0 1.923 1.577 3.498 3.51 3.498a3.506 3.506 0 0 0 3.505-3.498 3.507 3.507 0 0 0-3.505-3.502M893.361 246a3.512 3.512 0 0 0-3.507 3.507c0 1.924 1.58 3.493 3.507 3.493 1.928 0 3.507-1.569 3.507-3.493a3.512 3.512 0 0 0-3.507-3.507M902.38 285a3.512 3.512 0 0 0-3.507 3.502A3.506 3.506 0 0 0 902.38 292a3.503 3.503 0 0 0 3.507-3.498A3.51 3.51 0 0 0 902.38 285M897.37 264a3.51 3.51 0 0 0-3.508 3.507c0 1.924 1.575 3.493 3.508 3.493 1.927 0 3.507-1.569 3.507-3.493A3.512 3.512 0 0 0 897.37 264M907.388 308a3.505 3.505 0 0 0-3.505 3.498 3.506 3.506 0 0 0 3.505 3.502 3.512 3.512 0 0 0 3.51-3.502c0-1.93-1.58-3.498-3.51-3.498M889.348 230a3.502 3.502 0 0 0-3.502 3.498 3.503 3.503 0 0 0 3.502 3.502 3.51 3.51 0 0 0 3.512-3.502 3.51 3.51 0 0 0-3.512-3.498M882.338 205a3.51 3.51 0 0 0-3.507 3.507c0 1.924 1.575 3.493 3.507 3.493a3.504 3.504 0 0 0 3.508-3.493 3.506 3.506 0 0 0-3.508-3.507M871.315 183a3.498 3.498 0 0 0-3.507 3.502 3.498 3.498 0 0 0 3.507 3.498 3.506 3.506 0 0 0 3.508-3.498c0-1.94-1.58-3.502-3.508-3.502"/>
            <path fill="#000" d="M869.309 183a3.51 3.51 0 0 0-3.505 3.498 3.507 3.507 0 1 0 7.015 0 3.506 3.506 0 0 0-3.51-3.498"/>
            <path fill="#000" d="M867.307 186a3.515 3.515 0 0 0-3.507 3.507c0 1.924 1.575 3.493 3.507 3.493 1.928 0 3.507-1.569 3.507-3.493 0-1.93-1.58-3.507-3.507-3.507M735.031 191a3.51 3.51 0 0 0-3.507 3.502 3.503 3.503 0 0 0 3.507 3.498 3.506 3.506 0 0 0 3.508-3.498A3.512 3.512 0 0 0 735.03 191M998.08 172.925c1.671-.8 3.347-1.59 5.01-2.42-.48-.265-1.001-.43-1.572-.43-1.645 0-2.972 1.21-3.439 2.85M1174.447 136.5c0 .533.166 1.023.402 1.5 1.883-1.392 3.742-2.797 5.61-4.202-.638-.473-1.406-.798-2.284-.798-2.054 0-3.728 1.57-3.728 3.5M1372.36 335a3.51 3.51 0 0 0-3.508 3.502 3.509 3.509 0 0 0 3.507 3.498 3.506 3.506 0 0 0 3.507-3.498 3.507 3.507 0 0 0-3.507-3.502M1313.238 263a3.517 3.517 0 0 0-3.51 3.502c0 1.931 1.581 3.498 3.51 3.498a3.504 3.504 0 0 0 3.505-3.498 3.51 3.51 0 0 0-3.505-3.502M1351.315 310a3.51 3.51 0 0 0-3.507 3.507c0 1.924 1.575 3.493 3.507 3.493 1.932 0 3.508-1.569 3.508-3.493a3.51 3.51 0 0 0-3.508-3.507M1295.196 242a3.51 3.51 0 0 0-3.505 3.498 3.517 3.517 0 0 0 3.505 3.502 3.512 3.512 0 0 0 3.51-3.502 3.506 3.506 0 0 0-3.51-3.498M1331.27 286a3.505 3.505 0 0 0-3.504 3.498 3.506 3.506 0 0 0 3.503 3.502 3.505 3.505 0 0 0 3.512-3.502 3.504 3.504 0 0 0-3.512-3.498M1279.167 223a3.5 3.5 0 1 0 0 7 3.498 3.498 0 0 0 3.505-3.493 3.507 3.507 0 0 0-3.505-3.507M708.977 194a3.51 3.51 0 0 0-3.507 3.498 3.511 3.511 0 0 0 3.507 3.502 3.508 3.508 0 0 0 3.507-3.502 3.507 3.507 0 0 0-3.507-3.498M836.743 195.833c2.013-.41 4.009-.85 6.013-1.29-.656-.83-1.594-1.376-2.66-1.376-1.554 0-2.853 1.12-3.353 2.666M814.2 193c-1.938 0-3.511 1.547-3.511 3.45 0 1.029.48 1.924 1.207 2.55 1.747-.249 3.494-.519 5.246-.793.326-.518.562-1.097.562-1.757 0-1.903-1.569-3.45-3.503-3.45M920.418 181c-1.937 0-3.508 1.718-3.508 3.83 0 1.347.675 2.47 1.636 3.17a651.05 651.05 0 0 0 5.11-1.742c.164-.442.269-.918.269-1.427 0-2.113-1.575-3.831-3.507-3.831M1245.33 118c-2.057 0-3.743 1.684-3.743 3.767 0 1.403.808 2.583 1.932 3.233 1.714-1.638 3.382-3.318 5.082-4.979-.636-1.179-1.835-2.021-3.27-2.021M1220.042 128a3.507 3.507 0 0 0-3.508 3.498 3.508 3.508 0 0 0 7.015 0 3.507 3.507 0 0 0-3.507-3.498M1229.06 133a3.512 3.512 0 0 0-3.507 3.507c0 1.924 1.58 3.493 3.508 3.493 1.932 0 3.507-1.569 3.507-3.493a3.51 3.51 0 0 0-3.507-3.507M1240.081 140a3.512 3.512 0 0 0-3.505 3.507 3.498 3.498 0 0 0 3.505 3.493c1.93 0 3.51-1.56 3.51-3.493 0-1.93-1.58-3.507-3.51-3.507M1292.192 189a3.51 3.51 0 0 0-3.507 3.502 3.509 3.509 0 0 0 3.507 3.498 3.512 3.512 0 0 0 3.507-3.498 3.513 3.513 0 0 0-3.507-3.502M1324.259 223c-1.923 0-3.507 1.569-3.507 3.498 0 1.925 1.584 3.502 3.507 3.502a3.508 3.508 0 0 0 3.507-3.502 3.502 3.502 0 0 0-3.507-3.498M1361.338 265a3.51 3.51 0 0 0-3.51 3.502 3.51 3.51 0 0 0 3.51 3.498 3.51 3.51 0 0 0 3.505-3.498 3.51 3.51 0 0 0-3.505-3.502M1342.296 243a3.51 3.51 0 0 0-3.507 3.498 3.511 3.511 0 0 0 3.507 3.502 3.508 3.508 0 0 0 3.508-3.502 3.507 3.507 0 0 0-3.508-3.498M1382.384 287a3.515 3.515 0 0 0-3.511 3.502 3.506 3.506 0 1 0 7.015 0 3.507 3.507 0 0 0-3.504-3.502M1277.159 174a3.504 3.504 0 0 0-3.506 3.507 3.501 3.501 0 0 0 3.506 3.493c1.928 0 3.51-1.569 3.51-3.493a3.513 3.513 0 0 0-3.51-3.507M1264.134 161a3.502 3.502 0 0 0-3.508 3.498 3.508 3.508 0 0 0 3.508 3.502 3.511 3.511 0 0 0 3.507-3.502 3.505 3.505 0 0 0-3.507-3.498M1251.104 150a3.51 3.51 0 0 0-3.505 3.51c0 1.915 1.568 3.49 3.505 3.49 1.934 0 3.51-1.575 3.51-3.49a3.516 3.516 0 0 0-3.51-3.51M1307.226 205a3.508 3.508 0 0 0-3.51 3.502 3.507 3.507 0 0 0 3.51 3.498 3.5 3.5 0 1 0 0-7M1403.424 311a3.512 3.512 0 0 0-3.508 3.502 3.511 3.511 0 0 0 3.508 3.498 3.509 3.509 0 0 0 3.507-3.498 3.51 3.51 0 0 0-3.507-3.502M1426.472 337a3.512 3.512 0 0 0-3.507 3.502 3.506 3.506 0 0 0 3.507 3.498 3.509 3.509 0 0 0 3.507-3.498 3.515 3.515 0 0 0-3.507-3.502M1250.104 189a3.512 3.512 0 0 0-3.507 3.507c0 1.924 1.58 3.493 3.507 3.493 1.928 0 3.508-1.569 3.508-3.493a3.512 3.512 0 0 0-3.508-3.507M1237.073 175a3.505 3.505 0 0 0-3.503 3.498 3.506 3.506 0 0 0 3.503 3.502 3.505 3.505 0 0 0 3.512-3.502 3.504 3.504 0 0 0-3.512-3.498M1225.05 162a3.507 3.507 0 0 0-3.505 3.502 3.506 3.506 0 0 0 7.014 0 3.514 3.514 0 0 0-3.509-3.502M1214.03 152a3.512 3.512 0 0 0-3.508 3.507c0 1.924 1.58 3.493 3.507 3.493 1.932 0 3.508-1.569 3.508-3.493a3.51 3.51 0 0 0-3.508-3.507M1185.97 133a3.507 3.507 0 0 0-3.507 3.498 3.508 3.508 0 0 0 7.015 0c0-1.93-1.57-3.498-3.507-3.498M1211.243 125c-2.053 0-3.727 1.72-3.727 3.857 0 1.327.703 2.448 1.692 3.143 1.79-1.6 3.551-3.239 5.322-4.858-.61-1.25-1.845-2.142-3.287-2.142M1193.987 138a3.513 3.513 0 0 0-3.507 3.502 3.512 3.512 0 0 0 3.507 3.498c1.928 0 3.508-1.575 3.508-3.498a3.515 3.515 0 0 0-3.508-3.502M1203.006 144a3.51 3.51 0 0 0-3.507 3.498 3.511 3.511 0 0 0 3.507 3.502 3.508 3.508 0 0 0 3.508-3.502 3.507 3.507 0 0 0-3.508-3.498M1264.134 205a3.51 3.51 0 0 0-3.508 3.498 3.511 3.511 0 0 0 3.508 3.502 3.508 3.508 0 0 0 3.507-3.502 3.507 3.507 0 0 0-3.507-3.498M761.088 194a3.519 3.519 0 0 0-3.51 3.507c0 1.924 1.58 3.493 3.51 3.493a3.501 3.501 0 0 0 3.505-3.493 3.51 3.51 0 0 0-3.505-3.507M767.094 257a3.504 3.504 0 0 0-3.503 3.507 3.501 3.501 0 0 0 3.503 3.493c1.934 0 3.511-1.569 3.511-3.493a3.511 3.511 0 0 0-3.511-3.507M766.098 240a3.513 3.513 0 0 0-3.51 3.502 3.507 3.507 0 0 0 3.51 3.498 3.506 3.506 0 0 0 3.505-3.498 3.513 3.513 0 0 0-3.505-3.502M764.09 213a3.505 3.505 0 0 0-3.505 3.498A3.506 3.506 0 0 0 764.09 220a3.512 3.512 0 0 0 3.51-3.502c0-1.93-1.581-3.498-3.51-3.498M769.098 298a3.499 3.499 0 0 0-3.503 3.502 3.503 3.503 0 0 0 3.503 3.498c1.934 0 3.512-1.57 3.512-3.498a3.506 3.506 0 0 0-3.512-3.502M770.104 322a3.51 3.51 0 0 0-3.507 3.502 3.503 3.503 0 0 0 3.507 3.498 3.5 3.5 0 0 0 3.508-3.498 3.507 3.507 0 0 0-3.508-3.502M768.1 276a3.507 3.507 0 0 0-3.507 3.502A3.506 3.506 0 0 0 768.1 283a3.498 3.498 0 0 0 3.508-3.498A3.498 3.498 0 0 0 768.1 276M764.09 203a3.51 3.51 0 0 0-3.505 3.502A3.51 3.51 0 0 0 764.09 210c1.929 0 3.51-1.575 3.51-3.498a3.517 3.517 0 0 0-3.51-3.502M765.094 225a3.51 3.51 0 0 0-3.507 3.507 3.5 3.5 0 0 0 3.507 3.493 3.498 3.498 0 0 0 3.507-3.493 3.506 3.506 0 0 0-3.507-3.507"/>
            <path fill="#000" d="M761.088 190a3.506 3.506 0 0 0-3.51 3.498 3.512 3.512 0 0 0 3.51 3.502 3.511 3.511 0 0 0 3.505-3.502 3.505 3.505 0 0 0-3.505-3.498"/>
            <path fill="#000" d="M763.09 196a3.51 3.51 0 0 0-3.508 3.498A3.511 3.511 0 0 0 763.09 203a3.514 3.514 0 0 0 3.507-3.502c0-1.93-1.584-3.498-3.507-3.498M762.088 188a3.51 3.51 0 0 0-3.508 3.507 3.5 3.5 0 0 0 3.508 3.493c1.927 0 3.507-1.56 3.507-3.493a3.512 3.512 0 0 0-3.507-3.507"/>
            <path fill="#000" d="M763.092 191a3.5 3.5 0 0 0-3.51 3.498 3.507 3.507 0 0 0 3.51 3.502 3.5 3.5 0 1 0 0-7"/>
            <path fill="#000" d="M762.088 188a3.51 3.51 0 0 0-3.508 3.507c0 1.924 1.576 3.493 3.508 3.493 1.927 0 3.507-1.569 3.507-3.493a3.512 3.512 0 0 0-3.507-3.507M707.973 188a3.508 3.508 0 0 0-3.505 3.498 3.508 3.508 0 0 0 7.014 0 3.503 3.503 0 0 0-3.51-3.498M701.965 276a3.514 3.514 0 0 0-3.51 3.502 3.507 3.507 0 0 0 3.51 3.498 3.5 3.5 0 0 0 3.505-3.498 3.507 3.507 0 0 0-3.505-3.502M699.958 322a3.512 3.512 0 0 0-3.507 3.507c0 1.924 1.58 3.493 3.507 3.493a3.5 3.5 0 1 0 0-7M700.958 298a3.51 3.51 0 0 0-3.505 3.51 3.499 3.499 0 0 0 3.505 3.49c1.933 0 3.51-1.567 3.51-3.49a3.516 3.516 0 0 0-3.51-3.51"/>
            <path fill="#000" d="M706.975 191c-1.929 0-3.51 1.569-3.51 3.498a3.518 3.518 0 0 0 3.51 3.502 3.514 3.514 0 0 0 3.505-3.502 3.508 3.508 0 0 0-3.505-3.498"/>
            <path fill="#000" d="M707.975 188a3.505 3.505 0 0 0-3.507 3.493 3.514 3.514 0 0 0 3.507 3.507 3.51 3.51 0 0 0 3.507-3.507 3.502 3.502 0 0 0-3.507-3.493"/>
            <path fill="#000" d="M707.973 190a3.507 3.507 0 0 0-3.505 3.507 3.504 3.504 0 0 0 3.505 3.493c1.929 0 3.51-1.569 3.51-3.493a3.513 3.513 0 0 0-3.51-3.507"/>
            <path fill="#000" d="M706.973 196a3.515 3.515 0 0 0-3.507 3.507c0 1.924 1.575 3.493 3.507 3.493 1.928 0 3.507-1.569 3.507-3.493 0-1.93-1.58-3.507-3.507-3.507M705.97 203a3.51 3.51 0 0 0-3.507 3.507c0 1.924 1.576 3.493 3.508 3.493s3.507-1.569 3.507-3.493a3.51 3.51 0 0 0-3.507-3.507M704.967 225a3.512 3.512 0 0 0-3.506 3.507 3.498 3.498 0 0 0 3.506 3.493c1.928 0 3.509-1.56 3.509-3.493 0-1.93-1.58-3.507-3.51-3.507M703.962 240a3.507 3.507 0 0 0-3.503 3.507 3.504 3.504 0 0 0 3.503 3.493 3.503 3.503 0 0 0 3.512-3.493 3.506 3.506 0 0 0-3.512-3.507M702.965 257a3.51 3.51 0 0 0-3.508 3.498 3.511 3.511 0 0 0 3.508 3.502 3.511 3.511 0 0 0 3.507-3.502 3.51 3.51 0 0 0-3.507-3.498M704.969 213a3.505 3.505 0 0 0-3.508 3.498A3.506 3.506 0 0 0 704.97 220a3.514 3.514 0 0 0 3.507-3.502c0-1.93-1.584-3.498-3.507-3.498M735.03 188a3.502 3.502 0 0 0-3.506 3.498 3.503 3.503 0 0 0 3.505 3.502 3.512 3.512 0 0 0 3.51-3.502c0-1.93-1.581-3.498-3.51-3.498M735.036 322a3.512 3.512 0 0 0-3.512 3.498 3.508 3.508 0 0 0 7.015 0 3.508 3.508 0 0 0-3.503-3.498M735.031 226a3.501 3.501 0 0 0-3.507 3.502 3.506 3.506 0 0 0 3.507 3.498c1.924 0 3.508-1.57 3.508-3.498A3.51 3.51 0 0 0 735.03 226M735.031 257a3.51 3.51 0 0 0-3.507 3.502 3.503 3.503 0 0 0 3.507 3.498 3.509 3.509 0 0 0 3.508-3.498A3.515 3.515 0 0 0 735.03 257M735.033 240a3.506 3.506 0 0 0-3.509 3.498 3.507 3.507 0 0 0 7.015 0 3.508 3.508 0 0 0-3.506-3.498M735.031 298a3.512 3.512 0 0 0-3.507 3.507c0 1.933 1.58 3.493 3.507 3.493a3.5 3.5 0 0 0 3.508-3.493A3.51 3.51 0 0 0 735.03 298M735.031 277a3.505 3.505 0 0 0-3.507 3.498 3.506 3.506 0 0 0 3.507 3.502 3.511 3.511 0 0 0 3.508-3.502A3.51 3.51 0 0 0 735.03 277"/>
            <path fill="#000" d="M735.031 194a3.507 3.507 0 0 0-3.507 3.498 3.514 3.514 0 0 0 3.507 3.502 3.517 3.517 0 0 0 3.508-3.502A3.51 3.51 0 0 0 735.03 194M735.033 213a3.508 3.508 0 0 0-3.509 3.507 3.505 3.505 0 0 0 3.51 3.493c1.924 0 3.505-1.569 3.505-3.493a3.512 3.512 0 0 0-3.506-3.507M735.03 204a3.51 3.51 0 0 0-3.506 3.498 3.507 3.507 0 1 0 7.015 0 3.506 3.506 0 0 0-3.51-3.498"/>
            <path fill="#000" d="M735.031 196a3.502 3.502 0 0 0-3.507 3.498 3.514 3.514 0 0 0 3.507 3.502 3.514 3.514 0 0 0 3.508-3.502A3.502 3.502 0 0 0 735.03 196"/>
            <path fill="#000" d="M735.03 189a3.515 3.515 0 0 0-3.506 3.507 3.507 3.507 0 0 0 3.505 3.493 3.505 3.505 0 0 0 3.51-3.493 3.513 3.513 0 0 0-3.51-3.507"/>
            <path fill="#000" d="M735.031 190a3.515 3.515 0 0 0-3.507 3.507c0 1.924 1.584 3.493 3.507 3.493a3.504 3.504 0 0 0 3.508-3.493A3.506 3.506 0 0 0 735.03 190M1370.355 138a3.51 3.51 0 0 0-3.507 3.498 3.511 3.511 0 0 0 3.507 3.502 3.506 3.506 0 0 0 3.507-3.502c0-1.93-1.57-3.498-3.507-3.498M1197.998 175c-1.929 0-3.51 1.569-3.51 3.498a3.512 3.512 0 0 0 3.51 3.502 3.506 3.506 0 0 0 3.505-3.502 3.505 3.505 0 0 0-3.505-3.498M1152.904 139a3.506 3.506 0 0 0-3.51 3.498 3.507 3.507 0 0 0 7.015 0 3.508 3.508 0 0 0-3.505-3.498M1159.916 142a3.502 3.502 0 0 0-3.507 3.498 3.514 3.514 0 0 0 3.507 3.502 3.517 3.517 0 0 0 3.508-3.502 3.505 3.505 0 0 0-3.508-3.498M1176.954 154a3.505 3.505 0 0 0-3.51 3.507 3.502 3.502 0 0 0 3.51 3.493 3.507 3.507 0 0 0 3.505-3.493 3.51 3.51 0 0 0-3.505-3.507M1186.973 163a3.507 3.507 0 0 0-3.507 3.502 3.506 3.506 0 0 0 3.507 3.498 3.506 3.506 0 0 0 3.507-3.498c0-1.94-1.58-3.502-3.507-3.502M1167.933 147a3.512 3.512 0 0 0-3.507 3.507 3.504 3.504 0 0 0 3.507 3.493c1.932 0 3.507-1.569 3.507-3.493a3.515 3.515 0 0 0-3.507-3.507M1400.367 100.544c0 .52.14 1.007.371 1.456 1.263-1.653 2.49-3.325 3.738-4.987-.03 0-.04-.013-.07-.013-2.235 0-4.039 1.588-4.039 3.544M1397.411 202a3.515 3.515 0 0 0-3.507 3.502c0 1.923 1.58 3.498 3.507 3.498a3.512 3.512 0 0 0 3.508-3.498 3.513 3.513 0 0 0-3.508-3.502M1379.374 185a3.51 3.51 0 0 0-3.508 3.507 3.5 3.5 0 0 0 3.508 3.493 3.498 3.498 0 0 0 3.507-3.493 3.506 3.506 0 0 0-3.507-3.507M1361.332 169a3.5 3.5 0 1 0 0 7 3.505 3.505 0 0 0 3.511-3.502 3.498 3.498 0 0 0-3.511-3.498M1345.303 155a3.512 3.512 0 0 0-3.508 3.502 3.506 3.506 0 0 0 3.508 3.498 3.506 3.506 0 0 0 3.507-3.498 3.512 3.512 0 0 0-3.507-3.502M1417.45 221a3.507 3.507 0 0 0-3.504 3.507 3.504 3.504 0 0 0 3.505 3.493c1.929 0 3.51-1.569 3.51-3.493a3.513 3.513 0 0 0-3.51-3.507M1316.242 132a3.51 3.51 0 0 0-3.507 3.507c0 1.924 1.575 3.493 3.507 3.493a3.504 3.504 0 0 0 3.507-3.493 3.506 3.506 0 0 0-3.507-3.507M1330.271 143a3.51 3.51 0 0 0-3.507 3.507 3.5 3.5 0 0 0 3.507 3.493c1.928 0 3.508-1.56 3.508-3.493a3.512 3.512 0 0 0-3.508-3.507M1303.213 123a3.505 3.505 0 0 0-3.505 3.498 3.506 3.506 0 0 0 3.505 3.502 3.507 3.507 0 0 0 3.51-3.502 3.506 3.506 0 0 0-3.51-3.498M1291.19 116a3.512 3.512 0 0 0-3.507 3.509c0 1.919 1.575 3.491 3.507 3.491 1.936 0 3.507-1.572 3.507-3.491a3.51 3.51 0 0 0-3.507-3.509M1269.144 326a3.518 3.518 0 0 0-3.507 3.507c0 1.924 1.58 3.493 3.507 3.493a3.504 3.504 0 0 0 3.507-3.493c0-1.93-1.57-3.507-3.507-3.507M1252.106 301a3.507 3.507 0 0 0-3.505 3.507 3.504 3.504 0 0 0 3.505 3.493c1.93 0 3.51-1.569 3.51-3.493a3.513 3.513 0 0 0-3.51-3.507M1206.013 235a3.506 3.506 0 0 0-3.508 3.507 3.504 3.504 0 0 0 3.508 3.493c1.932 0 3.507-1.569 3.507-3.493a3.51 3.51 0 0 0-3.507-3.507M1220.042 255a3.515 3.515 0 0 0-3.508 3.507c0 1.924 1.576 3.493 3.508 3.493 1.927 0 3.507-1.569 3.507-3.493 0-1.93-1.58-3.507-3.507-3.507M1235.075 277a3.517 3.517 0 0 0-3.51 3.502c0 1.923 1.581 3.498 3.51 3.498a3.51 3.51 0 0 0 3.505-3.498 3.51 3.51 0 0 0-3.505-3.502M1192.985 217c-1.923 0-3.507 1.575-3.507 3.493a3.52 3.52 0 0 0 3.507 3.507 3.51 3.51 0 0 0 3.508-3.507 3.508 3.508 0 0 0-3.508-3.493M1133.864 150a3.506 3.506 0 0 0-3.51 3.498 3.507 3.507 0 0 0 7.016 0 3.508 3.508 0 0 0-3.506-3.498M1119.837 145a3.506 3.506 0 0 0-3.511 3.507 3.503 3.503 0 0 0 3.511 3.493 3.504 3.504 0 0 0 3.503-3.493 3.507 3.507 0 0 0-3.503-3.507"/>
            <path fill="#000" d="M1125.85 146a3.515 3.515 0 0 0-3.512 3.502 3.506 3.506 0 1 0 7.015 0 3.507 3.507 0 0 0-3.503-3.502M1140.877 156a3.504 3.504 0 0 0-3.507 3.502 3.503 3.503 0 0 0 3.507 3.498 3.503 3.503 0 0 0 3.507-3.498 3.504 3.504 0 0 0-3.507-3.502M1169.94 187a3.505 3.505 0 0 0-3.51 3.507 3.496 3.496 0 0 0 3.51 3.493 3.501 3.501 0 0 0 3.505-3.493 3.51 3.51 0 0 0-3.505-3.507M1180.96 201a3.51 3.51 0 0 0-3.507 3.507c0 1.924 1.575 3.493 3.507 3.493 1.928 0 3.508-1.569 3.508-3.493a3.512 3.512 0 0 0-3.508-3.507M1159.914 174a3.512 3.512 0 0 0-3.505 3.507 3.504 3.504 0 0 0 3.505 3.493c1.93 0 3.51-1.569 3.51-3.493 0-1.93-1.58-3.507-3.51-3.507M1149.896 164a3.512 3.512 0 0 0-3.508 3.507c0 1.933 1.58 3.493 3.508 3.493 1.927 0 3.507-1.56 3.507-3.493a3.512 3.512 0 0 0-3.507-3.507M1250.104 239a3.51 3.51 0 0 0-3.507 3.507c0 1.924 1.577 3.493 3.507 3.493a3.502 3.502 0 0 0 3.508-3.493 3.505 3.505 0 0 0-3.508-3.507M1266.138 260a3.51 3.51 0 0 0-3.508 3.498 3.517 3.517 0 0 0 3.508 3.502 3.511 3.511 0 0 0 3.507-3.502c0-1.93-1.57-3.498-3.507-3.498M1235.073 220c-1.928 0-3.507 1.567-3.507 3.493a3.516 3.516 0 0 0 3.507 3.507 3.516 3.516 0 0 0 3.507-3.507c0-1.926-1.58-3.493-3.507-3.493M1222.046 203a3.505 3.505 0 0 0-3.507 3.507 3.502 3.502 0 0 0 3.507 3.493c1.93 0 3.507-1.569 3.507-3.493a3.51 3.51 0 0 0-3.507-3.507M1283.173 282a3.515 3.515 0 0 0-3.507 3.507 3.5 3.5 0 0 0 3.507 3.493c1.928 0 3.508-1.56 3.508-3.493 0-1.93-1.58-3.507-3.508-3.507M1320.246 332a3.508 3.508 0 0 0-3.503 3.493 3.511 3.511 0 0 0 3.503 3.507 3.51 3.51 0 0 0 3.512-3.507c0-1.918-1.569-3.493-3.512-3.493M1301.21 306a3.505 3.505 0 0 0-3.506 3.498 3.506 3.506 0 0 0 3.507 3.502 3.511 3.511 0 0 0 3.507-3.502 3.51 3.51 0 0 0-3.507-3.498M1209.021 188a3.506 3.506 0 0 0-3.51 3.498 3.507 3.507 0 0 0 7.015 0 3.508 3.508 0 0 0-3.505-3.498M1276.66 115.707c0 .875.368 1.653.899 2.293 1.727-1.745 3.4-3.527 5.113-5.282-.631-.419-1.344-.718-2.162-.718-2.124 0-3.85 1.662-3.85 3.707M1355.321 127a3.496 3.496 0 0 0-3.505 3.498 3.503 3.503 0 0 0 3.505 3.502 3.512 3.512 0 0 0 3.51-3.502 3.506 3.506 0 0 0-3.51-3.498M1341.294 118a3.509 3.509 0 0 0-3.507 3.498 3.51 3.51 0 0 0 3.507 3.502 3.513 3.513 0 0 0 3.508-3.502 3.512 3.512 0 0 0-3.508-3.498M1387.39 151a3.515 3.515 0 0 0-3.507 3.507c0 1.924 1.575 3.493 3.507 3.493a3.504 3.504 0 0 0 3.508-3.493c0-1.93-1.571-3.507-3.508-3.507M1328.272 110a3.505 3.505 0 0 0-3.512 3.502 3.508 3.508 0 0 0 7.015 0 3.509 3.509 0 0 0-3.503-3.502M1404.426 165a3.496 3.496 0 0 0-3.507 3.498 3.503 3.503 0 0 0 3.507 3.502 3.511 3.511 0 0 0 3.507-3.502 3.505 3.505 0 0 0-3.507-3.498M1423.466 181a3.51 3.51 0 0 0-3.508 3.498 3.517 3.517 0 0 0 3.508 3.502 3.517 3.517 0 0 0 3.507-3.502 3.51 3.51 0 0 0-3.507-3.498M1419.457 103a3.513 3.513 0 0 0-3.507 3.5 3.51 3.51 0 0 0 3.507 3.5 3.504 3.504 0 0 0 3.508-3.5c0-1.928-1.571-3.5-3.508-3.5M1429.48 145a3.511 3.511 0 0 0-3.51 3.502 3.51 3.51 0 0 0 3.51 3.498c1.925 0 3.505-1.575 3.505-3.498a3.516 3.516 0 0 0-3.505-3.502"/>
            <g transform="translate(1431.983 112)">
                <mask id="d" fill="#fff">
                    <use xlink:href="#c"/>
                </mask>
                <path fill="#000" d="M3.928.68A3.772 3.772 0 0 0 .163 4.446a3.771 3.771 0 0 0 3.765 3.76 3.772 3.772 0 0 0 3.769-3.76A3.773 3.773 0 0 0 3.927.68" mask="url(#d)"/>
            </g>
            <path fill="#000" d="M1412.443 132a3.502 3.502 0 0 0-3.508 3.498 3.503 3.503 0 0 0 3.508 3.502 3.511 3.511 0 0 0 3.507-3.502 3.51 3.51 0 0 0-3.507-3.498M1379.374 111a3.512 3.512 0 0 0-3.508 3.507c0 1.924 1.58 3.493 3.508 3.493 1.923 0 3.507-1.569 3.507-3.493a3.515 3.515 0 0 0-3.507-3.507M1395.403 121a3.504 3.504 0 0 0-3.503 3.507 3.501 3.501 0 0 0 3.503 3.493c1.939 0 3.511-1.569 3.511-3.493a3.509 3.509 0 0 0-3.511-3.507M1365.344 103a3.51 3.51 0 0 0-3.507 3.504c0 1.926 1.58 3.496 3.507 3.496 1.928 0 3.508-1.57 3.508-3.496a3.51 3.51 0 0 0-3.508-3.504M978.539 170a3.51 3.51 0 0 0-3.508 3.498A3.511 3.511 0 0 0 978.54 177a3.511 3.511 0 0 0 3.507-3.502 3.51 3.51 0 0 0-3.507-3.498"/>
            <path fill="#000" d="M975.532 172a3.51 3.51 0 0 0-3.507 3.498 3.511 3.511 0 0 0 3.507 3.502 3.508 3.508 0 0 0 3.508-3.502 3.507 3.507 0 0 0-3.508-3.498M982.547 171a3.507 3.507 0 0 0-3.507 3.502 3.5 3.5 0 0 0 3.507 3.498 3.509 3.509 0 0 0 3.507-3.498 3.515 3.515 0 0 0-3.507-3.502"/>
            <path fill="#000" d="M986.555 174a3.51 3.51 0 0 0-3.507 3.498 3.511 3.511 0 0 0 3.507 3.502 3.508 3.508 0 0 0 3.508-3.502 3.507 3.507 0 0 0-3.508-3.498"/>
            <path fill="#000" d="M991.564 178a3.51 3.51 0 0 0-3.506 3.498 3.507 3.507 0 1 0 7.015 0 3.506 3.506 0 0 0-3.51-3.498M1015.616 221a3.51 3.51 0 0 0-3.507 3.507c0 1.924 1.575 3.493 3.507 3.493a3.504 3.504 0 0 0 3.507-3.493 3.506 3.506 0 0 0-3.507-3.507M1008.601 207a3.51 3.51 0 0 0-3.507 3.507c0 1.924 1.575 3.493 3.507 3.493 1.928 0 3.508-1.569 3.508-3.493A3.512 3.512 0 0 0 1008.6 207M996.578 186a3.508 3.508 0 0 0-3.51 3.502 3.507 3.507 0 0 0 3.51 3.498c1.925 0 3.506-1.575 3.506-3.498a3.516 3.516 0 0 0-3.506-3.502M1030.645 256a3.516 3.516 0 0 0-3.505 3.502c0 1.923 1.58 3.498 3.505 3.498a3.51 3.51 0 0 0 3.51-3.498 3.51 3.51 0 0 0-3.51-3.502M1039.664 276a3.507 3.507 0 0 0-3.505 3.507 3.51 3.51 0 0 0 3.505 3.493c1.929 0 3.51-1.577 3.51-3.493a3.513 3.513 0 0 0-3.51-3.507M1048.69 299a3.515 3.515 0 0 0-3.513 3.502 3.506 3.506 0 1 0 7.015 0 3.507 3.507 0 0 0-3.503-3.502M1022.63 237a3.51 3.51 0 0 0-3.507 3.507c0 1.924 1.575 3.493 3.507 3.493a3.504 3.504 0 0 0 3.508-3.493 3.506 3.506 0 0 0-3.508-3.507M1059.708 324a3.5 3.5 0 0 0 0 7c1.927 0 3.507-1.569 3.507-3.493a3.512 3.512 0 0 0-3.507-3.507M1002.589 195a3.51 3.51 0 0 0-3.508 3.498 3.511 3.511 0 0 0 3.508 3.502 3.508 3.508 0 0 0 3.507-3.502 3.507 3.507 0 0 0-3.507-3.498M1081.75 288a3.504 3.504 0 0 0-3.504 3.507 3.501 3.501 0 0 0 3.503 3.493c1.94 0 3.512-1.569 3.512-3.493a3.509 3.509 0 0 0-3.512-3.507M1071.73 266a3.5 3.5 0 1 0 0 7 3.512 3.512 0 0 0 3.51-3.502 3.506 3.506 0 0 0-3.51-3.498M1092.777 312a3.502 3.502 0 0 0-3.508 3.498 3.503 3.503 0 0 0 3.508 3.502 3.511 3.511 0 0 0 3.507-3.502 3.51 3.51 0 0 0-3.507-3.498M1061.712 246a3.506 3.506 0 0 0-3.507 3.507 3.504 3.504 0 0 0 3.507 3.493c1.928 0 3.507-1.569 3.507-3.493a3.512 3.512 0 0 0-3.507-3.507M1053.697 229a3.511 3.511 0 0 0-3.51 3.502c0 1.923 1.581 3.498 3.51 3.498a3.51 3.51 0 0 0 3.506-3.498 3.504 3.504 0 0 0-3.506-3.502M1044.676 213a3.51 3.51 0 0 0-3.507 3.502 3.503 3.503 0 0 0 3.507 3.498 3.503 3.503 0 0 0 3.508-3.498 3.51 3.51 0 0 0-3.508-3.502M1037.664 200a3.51 3.51 0 0 0-3.51 3.507c0 1.924 1.577 3.493 3.51 3.493a3.501 3.501 0 0 0 3.505-3.493 3.504 3.504 0 0 0-3.505-3.507M1009.601 166a3.507 3.507 0 0 0-3.505 3.502 3.506 3.506 0 0 0 3.505 3.498 3.507 3.507 0 0 0 3.51-3.498c0-1.94-1.58-3.502-3.51-3.502"/>
            <path fill="#000" d="M1005.595 166a3.51 3.51 0 0 0-3.507 3.507c0 1.924 1.575 3.493 3.507 3.493 1.928 0 3.507-1.569 3.507-3.493a3.512 3.512 0 0 0-3.507-3.507M1030.647 188a3.512 3.512 0 0 0-3.507 3.507c0 1.924 1.58 3.493 3.507 3.493 1.932 0 3.507-1.569 3.507-3.493a3.51 3.51 0 0 0-3.507-3.507M1024.639 180a3.504 3.504 0 0 0-3.512 3.498 3.505 3.505 0 0 0 3.512 3.502 3.506 3.506 0 0 0 3.503-3.502 3.505 3.505 0 0 0-3.503-3.498M1013.61 169a3.51 3.51 0 0 0-3.506 3.498 3.511 3.511 0 0 0 3.506 3.502 3.512 3.512 0 0 0 3.509-3.502c0-1.93-1.58-3.498-3.51-3.498"/>
            <path fill="#000" d="M1018.622 173a3.507 3.507 0 0 0-3.507 3.502 3.5 3.5 0 0 0 3.507 3.498 3.506 3.506 0 0 0 3.507-3.498 3.512 3.512 0 0 0-3.507-3.502M1007.597 286a3.51 3.51 0 0 0-3.505 3.498 3.507 3.507 0 1 0 7.015 0 3.506 3.506 0 0 0-3.51-3.498M1024.635 335a3.507 3.507 0 0 0-3.508 3.498 3.514 3.514 0 0 0 3.508 3.502 3.517 3.517 0 0 0 3.507-3.502 3.51 3.51 0 0 0-3.507-3.498M1015.614 309a3.504 3.504 0 0 0-3.505 3.502 3.503 3.503 0 0 0 3.505 3.498 3.501 3.501 0 0 0 3.51-3.498 3.502 3.502 0 0 0-3.51-3.502M999.582 264a3.514 3.514 0 0 0-3.507 3.502 3.507 3.507 0 0 0 7.015 0 3.508 3.508 0 0 0-3.508-3.502M992.568 245a3.51 3.51 0 0 0-3.507 3.498 3.511 3.511 0 0 0 3.507 3.502 3.508 3.508 0 0 0 3.507-3.502 3.507 3.507 0 0 0-3.507-3.498M949.476 175a3.512 3.512 0 0 0-3.505 3.507c0 1.924 1.58 3.493 3.505 3.493 1.929 0 3.51-1.569 3.51-3.493a3.513 3.513 0 0 0-3.51-3.507M959.501 178a3.508 3.508 0 0 0-3.51 3.502 3.507 3.507 0 0 0 3.51 3.498 3.506 3.506 0 0 0 3.505-3.498c0-1.94-1.58-3.502-3.505-3.502"/>
            <path fill="#000" d="M955.49 175a3.512 3.512 0 0 0-3.507 3.507c0 1.924 1.58 3.493 3.508 3.493a3.504 3.504 0 0 0 3.507-3.493A3.506 3.506 0 0 0 955.49 175"/>
            <path fill="#000" d="M952.482 174a3.512 3.512 0 0 0-3.505 3.507 3.504 3.504 0 0 0 3.505 3.493 3.505 3.505 0 0 0 3.51-3.493 3.513 3.513 0 0 0-3.51-3.507M979.543 214a3.513 3.513 0 0 0-3.51 3.507 3.5 3.5 0 0 0 3.51 3.493c1.924 0 3.505-1.56 3.505-3.493 0-1.93-1.58-3.507-3.505-3.507M973.528 201a3.515 3.515 0 0 0-3.507 3.502 3.509 3.509 0 0 0 3.507 3.498 3.498 3.498 0 0 0 3.507-3.498 3.504 3.504 0 0 0-3.507-3.502M968.516 191a3.5 3.5 0 1 0 0 7 3.512 3.512 0 0 0 3.51-3.502 3.506 3.506 0 0 0-3.51-3.498M963.507 184a3.512 3.512 0 0 0-3.507 3.507c0 1.924 1.58 3.493 3.507 3.493 1.928 0 3.508-1.569 3.508-3.493a3.512 3.512 0 0 0-3.508-3.507M985.553 228a3.515 3.515 0 0 0-3.507 3.507c0 1.924 1.575 3.493 3.507 3.493 1.928 0 3.508-1.569 3.508-3.493 0-1.93-1.58-3.507-3.508-3.507M1185.969 335a3.512 3.512 0 0 0-3.506 3.507c0 1.924 1.581 3.493 3.506 3.493a3.505 3.505 0 0 0 3.51-3.493 3.508 3.508 0 0 0-3.51-3.507M1157.914 285a3.503 3.503 0 0 0-3.509 3.498 3.51 3.51 0 0 0 3.51 3.502 3.514 3.514 0 0 0 3.505-3.502 3.508 3.508 0 0 0-3.506-3.498M1171.944 309a3.5 3.5 0 1 0 0 7 3.506 3.506 0 0 0 3.505-3.498c0-1.94-1.58-3.502-3.505-3.502M1067.727 157a3.517 3.517 0 0 0-3.51 3.502c0 1.923 1.58 3.498 3.51 3.498a3.51 3.51 0 0 0 3.505-3.498 3.51 3.51 0 0 0-3.505-3.502M1145.887 263a3.51 3.51 0 0 0-3.507 3.502c0 1.927 1.584 3.498 3.507 3.498a3.506 3.506 0 0 0 3.508-3.498c0-1.94-1.571-3.502-3.508-3.502M1079.752 166a3.513 3.513 0 0 0-3.51 3.507c0 1.924 1.58 3.493 3.51 3.493a3.501 3.501 0 0 0 3.505-3.493 3.504 3.504 0 0 0-3.505-3.507"/>
            <path fill="#000" d="M1073.74 160a3.51 3.51 0 0 0-3.51 3.502 3.51 3.51 0 0 0 3.51 3.498c1.924 0 3.504-1.575 3.504-3.498a3.516 3.516 0 0 0-3.505-3.502M1062.714 156a3.51 3.51 0 0 0-3.507 3.507 3.5 3.5 0 0 0 3.507 3.493 3.5 3.5 0 0 0 3.507-3.493 3.51 3.51 0 0 0-3.507-3.507M1094.779 183a3.512 3.512 0 0 0-3.506 3.507c0 1.924 1.581 3.493 3.506 3.493a3.505 3.505 0 0 0 3.51-3.493 3.508 3.508 0 0 0-3.51-3.507M1122.84 225a3.507 3.507 0 0 0-3.508 3.502 3.511 3.511 0 0 0 3.507 3.498 3.511 3.511 0 0 0 3.508-3.498c0-1.94-1.58-3.502-3.508-3.502M1112.818 209a3.507 3.507 0 0 0-3.507 3.498 3.514 3.514 0 0 0 3.507 3.502 3.503 3.503 0 0 0 3.508-3.502 3.496 3.496 0 0 0-3.508-3.498M1102.8 195a3.517 3.517 0 0 0-3.51 3.502c0 1.923 1.58 3.498 3.51 3.498a3.51 3.51 0 0 0 3.505-3.498A3.51 3.51 0 0 0 1102.8 195M1133.862 243a3.502 3.502 0 0 0-3.507 3.498 3.508 3.508 0 0 0 7.015 0 3.502 3.502 0 0 0-3.508-3.498M1086.766 173a3.51 3.51 0 0 0-3.51 3.507c0 1.924 1.577 3.493 3.51 3.493a3.501 3.501 0 0 0 3.505-3.493 3.504 3.504 0 0 0-3.505-3.507M1093.777 151a3.503 3.503 0 0 0-3.506 3.493 3.51 3.51 0 0 0 3.506 3.507 3.517 3.517 0 0 0 3.509-3.507c0-1.926-1.58-3.493-3.51-3.493M1113.823 165a3.513 3.513 0 0 0-3.51 3.507c0 1.924 1.58 3.493 3.51 3.493a3.504 3.504 0 0 0 3.505-3.493 3.507 3.507 0 0 0-3.505-3.507M1106.808 158a3.51 3.51 0 0 0-3.51 3.502 3.51 3.51 0 0 0 3.51 3.498c1.925 0 3.505-1.575 3.505-3.498a3.516 3.516 0 0 0-3.505-3.502M1175.95 250a3.51 3.51 0 0 0-3.507 3.498 3.517 3.517 0 0 0 3.507 3.502 3.514 3.514 0 0 0 3.507-3.502 3.507 3.507 0 0 0-3.507-3.498"/>
            <path fill="#000" d="M1088.764 151a3.51 3.51 0 0 0-3.503 3.502 3.508 3.508 0 0 0 7.015 0 3.51 3.51 0 0 0-3.512-3.502M1122.84 174a3.51 3.51 0 0 0-3.508 3.507c0 1.924 1.575 3.493 3.507 3.493 1.932 0 3.508-1.569 3.508-3.493a3.51 3.51 0 0 0-3.508-3.507M1163.925 230a3.51 3.51 0 0 0-3.507 3.498 3.511 3.511 0 0 0 3.507 3.502 3.508 3.508 0 0 0 3.507-3.502 3.507 3.507 0 0 0-3.507-3.498M1141.883 198a3.506 3.506 0 0 0-3.511 3.507 3.503 3.503 0 0 0 3.511 3.493 3.504 3.504 0 0 0 3.503-3.493 3.507 3.507 0 0 0-3.503-3.507M1131.858 185a3.518 3.518 0 0 0-3.507 3.507c0 1.933 1.58 3.493 3.507 3.493 1.94 0 3.507-1.56 3.507-3.493a3.51 3.51 0 0 0-3.507-3.507M1099.791 154a3.506 3.506 0 0 0-3.507 3.507 3.504 3.504 0 0 0 3.507 3.493c1.928 0 3.508-1.569 3.508-3.493a3.512 3.512 0 0 0-3.508-3.507M1219.04 318a3.51 3.51 0 0 0-3.508 3.502c0 1.923 1.58 3.498 3.508 3.498a3.512 3.512 0 0 0 3.507-3.498 3.507 3.507 0 0 0-3.507-3.502M1204.01 294c-1.928 0-3.509 1.569-3.509 3.498a3.512 3.512 0 0 0 3.51 3.502 3.506 3.506 0 0 0 3.505-3.502 3.505 3.505 0 0 0-3.505-3.498M1189.977 271a3.512 3.512 0 0 0-3.505 3.507c0 1.924 1.58 3.493 3.505 3.493 1.929 0 3.51-1.569 3.51-3.493a3.513 3.513 0 0 0-3.51-3.507M1151.898 213a3.51 3.51 0 0 0-3.506 3.498 3.507 3.507 0 1 0 7.015 0 3.506 3.506 0 0 0-3.51-3.498M1113.825 276a3.503 3.503 0 0 0-3.512 3.502 3.508 3.508 0 0 0 7.015 0 3.499 3.499 0 0 0-3.503-3.502M1138.873 324a3.5 3.5 0 1 0 0 7 3.504 3.504 0 0 0 3.507-3.498 3.505 3.505 0 0 0-3.507-3.502M1102.797 255a3.502 3.502 0 0 0-3.507 3.498 3.503 3.503 0 0 0 3.507 3.502 3.511 3.511 0 0 0 3.508-3.502 3.51 3.51 0 0 0-3.508-3.498M1125.846 299a3.518 3.518 0 0 0-3.508 3.507c0 1.924 1.58 3.493 3.508 3.493 1.927 0 3.507-1.569 3.507-3.493 0-1.93-1.58-3.507-3.507-3.507M1092.777 236a3.51 3.51 0 0 0-3.508 3.502 3.503 3.503 0 0 0 3.508 3.498c1.923 0 3.507-1.567 3.507-3.498 0-1.927-1.584-3.502-3.507-3.502M1082.756 219a3.513 3.513 0 0 0-3.508 3.502 3.512 3.512 0 0 0 3.508 3.498c1.927 0 3.507-1.575 3.507-3.498a3.515 3.515 0 0 0-3.507-3.502M1040.672 163a3.504 3.504 0 0 0-3.511 3.498 3.51 3.51 0 0 0 3.511 3.502 3.5 3.5 0 0 0 3.503-3.502 3.494 3.494 0 0 0-3.503-3.498M1031.65 162a3.517 3.517 0 0 0-3.508 3.51c0 1.915 1.58 3.49 3.507 3.49 1.928 0 3.508-1.575 3.508-3.49 0-1.935-1.58-3.51-3.508-3.51"/>
            <path fill="#000" d="M1046.68 167a3.507 3.507 0 0 0-3.507 3.498 3.508 3.508 0 0 0 3.508 3.502 3.511 3.511 0 0 0 3.507-3.502 3.51 3.51 0 0 0-3.507-3.498M1035.658 162a3.507 3.507 0 0 0-3.508 3.498 3.508 3.508 0 0 0 3.508 3.502 3.511 3.511 0 0 0 3.507-3.502 3.51 3.51 0 0 0-3.507-3.498M1066.72 192a3.517 3.517 0 0 0-3.505 3.51c0 1.923 1.58 3.49 3.505 3.49 1.93 0 3.51-1.567 3.51-3.49 0-1.935-1.58-3.51-3.51-3.51M1052.693 173a3.512 3.512 0 0 0-3.507 3.507c0 1.933 1.58 3.493 3.507 3.493a3.5 3.5 0 0 0 3.507-3.493 3.51 3.51 0 0 0-3.507-3.507M1074.739 204a3.5 3.5 0 0 0 0 7c1.928 0 3.507-1.569 3.507-3.493a3.512 3.512 0 0 0-3.507-3.507M1058.706 181a3.51 3.51 0 0 0-3.508 3.507c0 1.924 1.576 3.493 3.508 3.493 1.927 0 3.507-1.569 3.507-3.493a3.512 3.512 0 0 0-3.507-3.507M98.71 139a3.509 3.509 0 0 0-3.512 3.507c0 1.924 1.573 3.493 3.512 3.493a3.501 3.501 0 0 0 3.503-3.493A3.504 3.504 0 0 0 98.71 139M360.237 148c-1.9 0-3.428 1.693-3.494 3.768 1.839 1.08 3.67 2.177 5.53 3.232a3.968 3.968 0 0 0 1.485-3.096c0-2.148-1.581-3.904-3.52-3.904M416.367 161c-1.927 0-3.507 1.725-3.507 3.835 0 .266.092.499.148.76a482.67 482.67 0 0 0 5.209 2.405c.975-.69 1.658-1.81 1.658-3.165 0-2.11-1.576-3.835-3.508-3.835M471.42 174.923c-.946 0-1.794.41-2.443 1.045 1.989.725 4.01 1.395 6.013 2.11-.38-1.79-1.794-3.155-3.57-3.155M273.069 124c-1.932 0-3.507 1.609-3.507 3.608 0 .058.03.112.034.174 1.502 1.076 3.007 2.151 4.509 3.218a3.57 3.57 0 0 0 2.471-3.392c0-2-1.58-3.608-3.507-3.608M303.497 135.48c1.088.685 2.185 1.365 3.277 2.04-.666-1.17-1.859-1.97-3.277-2.04M117.745 97a3.508 3.508 0 0 0-3.507 3.502 3.51 3.51 0 0 0 3.507 3.498 3.51 3.51 0 0 0 3.508-3.498A3.508 3.508 0 0 0 117.745 97M89.687 112a3.51 3.51 0 0 0-3.507 3.507A3.504 3.504 0 0 0 89.687 119a3.504 3.504 0 0 0 3.507-3.493A3.51 3.51 0 0 0 89.687 112M74.656 121a3.513 3.513 0 0 0-3.508 3.5 3.51 3.51 0 0 0 3.508 3.5 3.504 3.504 0 0 0 3.507-3.5c0-1.928-1.571-3.5-3.507-3.5M103.716 103a3.514 3.514 0 0 0-3.507 3.502 3.51 3.51 0 0 0 3.507 3.498 3.502 3.502 0 0 0 3.507-3.498 3.506 3.506 0 0 0-3.507-3.502M57.62 133a3.512 3.512 0 0 0-3.507 3.507c0 1.924 1.58 3.493 3.507 3.493 1.932 0 3.507-1.569 3.507-3.493A3.51 3.51 0 0 0 57.62 133M39.58 146a3.513 3.513 0 0 0-3.505 3.502 3.507 3.507 0 1 0 7.015 0A3.508 3.508 0 0 0 39.58 146M20.54 160a3.507 3.507 0 0 0-3.505 3.507A3.498 3.498 0 0 0 20.541 167c1.929 0 3.51-1.56 3.51-3.493A3.513 3.513 0 0 0 20.54 160M105.716 80a3.503 3.503 0 0 0-3.503 3.502A3.502 3.502 0 0 0 105.716 87a3.51 3.51 0 0 0 3.512-3.498A3.51 3.51 0 0 0 105.716 80M93.695 83a3.506 3.506 0 0 0-3.507 3.502A3.507 3.507 0 0 0 93.695 90c1.924 0 3.508-1.573 3.508-3.498A3.514 3.514 0 0 0 93.695 83M80.67 88a3.503 3.503 0 0 0-3.51 3.498 3.508 3.508 0 0 0 7.015 0A3.508 3.508 0 0 0 80.67 88M140.793 89a3.51 3.51 0 0 0-3.507 3.496A3.51 3.51 0 0 0 140.793 96a3.514 3.514 0 0 0 3.508-3.504c0-1.924-1.58-3.496-3.508-3.496M64.635 166a3.515 3.515 0 0 0-3.508 3.507c0 1.924 1.576 3.493 3.508 3.493 1.927 0 3.507-1.569 3.507-3.493 0-1.93-1.58-3.507-3.507-3.507M25.553 199a3.5 3.5 0 0 0 0 7c1.928 0 3.508-1.569 3.508-3.493A3.512 3.512 0 0 0 25.553 199M45.597 182c-1.929 0-3.51 1.569-3.51 3.498a3.512 3.512 0 0 0 3.51 3.502 3.506 3.506 0 0 0 3.505-3.502A3.505 3.505 0 0 0 45.597 182M82.672 152a3.507 3.507 0 0 0-3.507 3.498A3.514 3.514 0 0 0 82.672 159a3.514 3.514 0 0 0 3.508-3.502A3.507 3.507 0 0 0 82.672 152"/>
            <g transform="translate(0 216)">
                <mask id="f" fill="#fff">
                    <use xlink:href="#e"/>
                </mask>
                <path fill="#000" d="M3.633.94A3.638 3.638 0 0 0-.002 4.572c0 1.994 1.637 3.618 3.635 3.618a3.629 3.629 0 0 0 3.63-3.618A3.632 3.632 0 0 0 3.633.941" mask="url(#f)"/>
            </g>
            <path fill="#000" d="M129.77 92a3.508 3.508 0 0 0-3.507 3.502 3.507 3.507 0 0 0 7.015 0A3.511 3.511 0 0 0 129.77 92M4.51 69a3.508 3.508 0 0 0-3.508 3.502A3.51 3.51 0 0 0 4.51 76c1.928 0 3.508-1.573 3.508-3.498A3.511 3.511 0 0 0 4.509 69M19.54 63a3.508 3.508 0 0 0-3.507 3.502 3.507 3.507 0 0 0 7.015 0A3.511 3.511 0 0 0 19.541 63M65.637 95a3.508 3.508 0 0 0-3.508 3.502A3.51 3.51 0 0 0 65.637 102a3.51 3.51 0 0 0 3.507-3.498A3.508 3.508 0 0 0 65.637 95M10.522 95a3.508 3.508 0 0 0-3.507 3.502A3.51 3.51 0 0 0 10.522 102c1.928 0 3.507-1.573 3.507-3.498A3.511 3.511 0 0 0 10.522 95M33.574 114a3.508 3.508 0 0 0-3.511 3.5c0 1.935 1.572 3.5 3.511 3.5a3.5 3.5 0 1 0 0-7M15.535 126a3.51 3.51 0 0 0-3.51 3.502 3.51 3.51 0 0 0 3.51 3.498c1.924 0 3.505-1.575 3.505-3.498A3.516 3.516 0 0 0 15.535 126M50.605 104a3.502 3.502 0 0 0-3.507 3.498A3.503 3.503 0 0 0 50.605 111a3.511 3.511 0 0 0 3.508-3.502A3.51 3.51 0 0 0 50.605 104M27.557 87a3.511 3.511 0 0 0-3.507 3.502A3.507 3.507 0 0 0 27.557 94a3.505 3.505 0 0 0 3.508-3.498c0-1.93-1.571-3.502-3.508-3.502M56.622 74a3.513 3.513 0 0 0-3.511 3.502A3.507 3.507 0 0 0 56.622 81a3.502 3.502 0 0 0 3.503-3.498A3.509 3.509 0 0 0 56.622 74M42.587 79a3.503 3.503 0 0 0-3.506 3.502A3.502 3.502 0 0 0 42.587 86c1.928 0 3.509-1.569 3.509-3.498A3.512 3.512 0 0 0 42.586 79M626.806 185a3.507 3.507 0 0 0-3.507 3.502 3.506 3.506 0 0 0 7.014 0 3.515 3.515 0 0 0-3.507-3.502M629.81 192a3.516 3.516 0 0 0-3.505 3.502c0 1.923 1.58 3.498 3.505 3.498a3.51 3.51 0 0 0 3.51-3.498 3.51 3.51 0 0 0-3.51-3.502"/>
            <path fill="#000" d="M628.812 187a3.519 3.519 0 0 0-3.51 3.507c0 1.924 1.581 3.493 3.51 3.493a3.504 3.504 0 0 0 3.505-3.493 3.512 3.512 0 0 0-3.505-3.507M614.783 219a3.503 3.503 0 0 0-3.51 3.498 3.508 3.508 0 0 0 7.015 0 3.508 3.508 0 0 0-3.505-3.498M600.752 290c-1.932 0-3.508 1.575-3.508 3.493a3.514 3.514 0 0 0 3.508 3.507 3.51 3.51 0 0 0 3.507-3.507 3.508 3.508 0 0 0-3.507-3.493M611.772 234a3.503 3.503 0 0 0-3.505 3.493 3.51 3.51 0 0 0 3.505 3.507 3.517 3.517 0 0 0 3.51-3.507c0-1.926-1.58-3.493-3.51-3.493M607.766 250a3.51 3.51 0 0 0-3.507 3.498 3.517 3.517 0 0 0 3.507 3.502 3.514 3.514 0 0 0 3.507-3.502 3.507 3.507 0 0 0-3.507-3.498"/>
            <path fill="#000" d="M623.8 187a3.51 3.51 0 0 0-3.508 3.498A3.511 3.511 0 0 0 623.8 194a3.508 3.508 0 0 0 3.507-3.502A3.507 3.507 0 0 0 623.8 187"/>
            <path fill="#000" d="M621.798 192a3.51 3.51 0 0 0-3.51 3.502 3.51 3.51 0 0 0 3.51 3.498 3.51 3.51 0 0 0 3.505-3.498 3.51 3.51 0 0 0-3.505-3.502M616.787 208a3.506 3.506 0 0 0-3.51 3.498 3.518 3.518 0 0 0 3.51 3.502 3.511 3.511 0 0 0 3.505-3.502 3.5 3.5 0 0 0-3.505-3.498"/>
            <path fill="#000" d="M619.791 198a3.507 3.507 0 0 0-3.507 3.498A3.508 3.508 0 0 0 619.79 205a3.511 3.511 0 0 0 3.508-3.502A3.51 3.51 0 0 0 619.79 198M625.804 185a3.505 3.505 0 0 0-3.508 3.507 3.502 3.502 0 0 0 3.508 3.493 3.505 3.505 0 0 0 3.507-3.493 3.508 3.508 0 0 0-3.507-3.507M596.745 313a3.503 3.503 0 0 0-3.51 3.498 3.51 3.51 0 0 0 3.51 3.502 3.514 3.514 0 0 0 3.506-3.502 3.508 3.508 0 0 0-3.506-3.498M676.91 202a3.505 3.505 0 0 0-3.507 3.498A3.511 3.511 0 0 0 676.91 209a3.508 3.508 0 0 0 3.508-3.502A3.502 3.502 0 0 0 676.91 202M680.919 187a3.507 3.507 0 0 0-3.508 3.502A3.5 3.5 0 0 0 680.92 194a3.503 3.503 0 0 0 3.507-3.498 3.51 3.51 0 0 0-3.507-3.502"/>
            <path fill="#000" d="M678.914 190a3.517 3.517 0 0 0-3.507 3.51c0 1.923 1.58 3.49 3.507 3.49 1.932 0 3.508-1.567 3.508-3.49a3.514 3.514 0 0 0-3.508-3.51"/>
            <path fill="#000" d="M679.916 188a3.513 3.513 0 0 0-3.507 3.502 3.512 3.512 0 0 0 3.507 3.498 3.512 3.512 0 0 0 3.508-3.498 3.513 3.513 0 0 0-3.508-3.502M677.912 195a3.512 3.512 0 0 0-3.507 3.507c0 1.924 1.58 3.493 3.507 3.493a3.504 3.504 0 0 0 3.508-3.493 3.506 3.506 0 0 0-3.508-3.507M675.908 212a3.51 3.51 0 0 0-3.507 3.502 3.503 3.503 0 0 0 3.507 3.498 3.5 3.5 0 0 0 3.507-3.498 3.507 3.507 0 0 0-3.507-3.502"/>
            <path fill="#000" d="M681.92 189a3.499 3.499 0 1 0 0 7 3.514 3.514 0 0 0 3.508-3.502 3.507 3.507 0 0 0-3.507-3.498"/>
            <path fill="#000" d="M681.92 194a3.51 3.51 0 0 0-3.507 3.502 3.509 3.509 0 0 0 3.508 3.498c1.923 0 3.507-1.575 3.507-3.498 0-1.927-1.584-3.502-3.507-3.502M667.891 296a3.513 3.513 0 0 0-3.507 3.502 3.512 3.512 0 0 0 3.507 3.498 3.509 3.509 0 0 0 3.508-3.498A3.51 3.51 0 0 0 667.89 296M665.887 320a3.51 3.51 0 0 0-3.507 3.498 3.511 3.511 0 0 0 3.507 3.502 3.511 3.511 0 0 0 3.508-3.502 3.51 3.51 0 0 0-3.508-3.498M669.896 275a3.507 3.507 0 0 0-3.508 3.498 3.508 3.508 0 0 0 3.508 3.502 3.511 3.511 0 0 0 3.507-3.502 3.51 3.51 0 0 0-3.507-3.498M672.902 239a3.515 3.515 0 0 0-3.507 3.502c0 1.923 1.58 3.498 3.507 3.498a3.509 3.509 0 0 0 3.507-3.498 3.51 3.51 0 0 0-3.507-3.502M671.9 255a3.513 3.513 0 0 0-3.508 3.498A3.508 3.508 0 0 0 671.9 262a3.511 3.511 0 0 0 3.507-3.502c0-1.92-1.58-3.498-3.507-3.498M674.906 224c-1.923 0-3.507 1.569-3.507 3.498a3.514 3.514 0 0 0 3.507 3.502 3.506 3.506 0 0 0 3.507-3.502c0-1.93-1.57-3.498-3.507-3.498M644.843 222a3.51 3.51 0 0 0-3.507 3.498 3.517 3.517 0 0 0 3.507 3.502 3.514 3.514 0 0 0 3.508-3.502 3.507 3.507 0 0 0-3.508-3.498M647.85 201a3.501 3.501 0 1 0 0 7 3.503 3.503 0 0 0 3.507-3.498A3.504 3.504 0 0 0 647.85 201M646.848 210a3.507 3.507 0 0 0-3.508 3.498 3.508 3.508 0 0 0 7.015 0 3.507 3.507 0 0 0-3.507-3.498M639.833 253a3.505 3.505 0 0 0-3.507 3.498 3.508 3.508 0 0 0 7.015 0 3.507 3.507 0 0 0-3.508-3.498M641.837 236a3.504 3.504 0 0 0-3.507 3.502 3.498 3.498 0 0 0 3.507 3.498 3.506 3.506 0 0 0 3.507-3.498 3.512 3.512 0 0 0-3.507-3.502M655.862 193a3.513 3.513 0 0 0-3.503 3.502 3.506 3.506 0 0 0 3.503 3.498 3.503 3.503 0 0 0 3.512-3.498 3.51 3.51 0 0 0-3.512-3.502"/>
            <path fill="#000" d="M654.864 189a3.515 3.515 0 0 0-3.507 3.502c0 1.923 1.58 3.498 3.507 3.498a3.512 3.512 0 0 0 3.508-3.498 3.513 3.513 0 0 0-3.508-3.502"/>
            <path fill="#000" d="M651.858 189c-1.928 0-3.507 1.577-3.507 3.498a3.511 3.511 0 0 0 3.507 3.502 3.514 3.514 0 0 0 3.507-3.502c0-1.92-1.584-3.498-3.507-3.498"/>
            <path fill="#000" d="M653.86 186a3.512 3.512 0 0 0-3.505 3.507A3.504 3.504 0 0 0 653.86 193a3.505 3.505 0 0 0 3.51-3.493 3.513 3.513 0 0 0-3.51-3.507"/>
            <path fill="#000" d="M652.86 186a3.51 3.51 0 0 0-3.507 3.507A3.5 3.5 0 0 0 652.86 193c1.928 0 3.507-1.569 3.507-3.493 0-1.93-1.58-3.507-3.507-3.507M649.852 194a3.51 3.51 0 0 0-3.505 3.502 3.51 3.51 0 0 0 3.505 3.498c1.929 0 3.51-1.575 3.51-3.498a3.517 3.517 0 0 0-3.51-3.502M630.814 317a3.518 3.518 0 0 0-3.507 3.507c0 1.924 1.58 3.493 3.507 3.493 1.932 0 3.508-1.569 3.508-3.493a3.515 3.515 0 0 0-3.508-3.507M633.82 293a3.51 3.51 0 0 0-3.507 3.498A3.517 3.517 0 0 0 633.82 300a3.517 3.517 0 0 0 3.508-3.502A3.51 3.51 0 0 0 633.82 293M636.829 272c-1.929 0-3.51 1.569-3.51 3.498a3.518 3.518 0 0 0 3.51 3.502 3.511 3.511 0 0 0 3.505-3.502 3.505 3.505 0 0 0-3.505-3.498M604.762 269a3.508 3.508 0 0 0-3.51 3.502 3.501 3.501 0 0 0 3.51 3.498 3.5 3.5 0 0 0 3.505-3.498 3.507 3.507 0 0 0-3.505-3.502M528.601 302a3.507 3.507 0 0 0-3.507 3.498A3.514 3.514 0 0 0 528.6 309a3.514 3.514 0 0 0 3.508-3.502A3.507 3.507 0 0 0 528.6 302M534.612 279a3.51 3.51 0 0 0-3.506 3.498 3.507 3.507 0 1 0 7.015 0 3.506 3.506 0 0 0-3.51-3.498M522.589 326a3.515 3.515 0 0 0-3.508 3.502c0 1.923 1.58 3.498 3.508 3.498a3.512 3.512 0 0 0 3.507-3.498 3.513 3.513 0 0 0-3.507-3.502M540.624 259a3.513 3.513 0 0 0-3.505 3.502 3.512 3.512 0 0 0 3.505 3.498 3.51 3.51 0 0 0 3.51-3.498 3.51 3.51 0 0 0-3.51-3.502M550.647 225a3.512 3.512 0 0 0-3.507 3.507c0 1.924 1.58 3.493 3.507 3.493 1.928 0 3.507-1.569 3.507-3.493a3.512 3.512 0 0 0-3.507-3.507M545.637 241a3.512 3.512 0 0 0-3.508 3.502 3.506 3.506 0 0 0 3.508 3.498 3.503 3.503 0 0 0 3.507-3.498 3.51 3.51 0 0 0-3.507-3.502M554.656 212a3.51 3.51 0 0 0-3.508 3.498 3.511 3.511 0 0 0 3.508 3.502 3.508 3.508 0 0 0 3.507-3.502 3.507 3.507 0 0 0-3.507-3.498M558.664 201a3.504 3.504 0 0 0-3.507 3.502 3.509 3.509 0 0 0 3.507 3.498 3.511 3.511 0 0 0 3.507-3.498c0-1.94-1.58-3.502-3.507-3.502M514.572 235a3.51 3.51 0 0 0-3.507 3.507c0 1.924 1.575 3.493 3.507 3.493 1.928 0 3.507-1.569 3.507-3.493a3.512 3.512 0 0 0-3.507-3.507M509.562 253a3.505 3.505 0 0 0-3.508 3.498 3.506 3.506 0 0 0 3.508 3.502 3.514 3.514 0 0 0 3.507-3.502c0-1.93-1.584-3.498-3.507-3.498M502.547 272a3.506 3.506 0 0 0-3.507 3.507 3.504 3.504 0 0 0 3.507 3.493c1.923 0 3.507-1.569 3.507-3.493a3.515 3.515 0 0 0-3.507-3.507M488.518 318a3.504 3.504 0 0 0-3.508 3.502 3.509 3.509 0 0 0 3.508 3.498 3.511 3.511 0 0 0 3.507-3.498c0-1.94-1.58-3.502-3.507-3.502M495.532 294a3.51 3.51 0 0 0-3.507 3.498 3.517 3.517 0 0 0 3.507 3.502 3.508 3.508 0 0 0 3.508-3.502 3.502 3.502 0 0 0-3.508-3.498M520.582 220a3.516 3.516 0 0 0-3.505 3.502c0 1.923 1.58 3.498 3.505 3.498a3.51 3.51 0 0 0 3.51-3.498 3.51 3.51 0 0 0-3.51-3.502M534.616 188a3.513 3.513 0 0 0-3.51 3.507c0 1.924 1.581 3.493 3.51 3.493a3.504 3.504 0 0 0 3.505-3.493 3.507 3.507 0 0 0-3.505-3.507M525.597 207a3.506 3.506 0 0 0-3.51 3.498 3.512 3.512 0 0 0 3.51 3.502 3.5 3.5 0 1 0 0-7"/>
            <path fill="#000" d="M537.622 182a3.513 3.513 0 0 0-3.51 3.507c0 1.924 1.581 3.493 3.51 3.493a3.501 3.501 0 0 0 3.505-3.493 3.504 3.504 0 0 0-3.505-3.507M529.608 196a3.513 3.513 0 0 0-3.512 3.507c0 1.924 1.58 3.493 3.512 3.493a3.5 3.5 0 1 0 0-7M549.647 182c-1.929 0-3.51 1.569-3.51 3.498a3.512 3.512 0 0 0 3.51 3.502 3.506 3.506 0 0 0 3.505-3.502 3.505 3.505 0 0 0-3.505-3.498"/>
            <path fill="#000" d="M541.628 179a3.513 3.513 0 0 0-3.507 3.502 3.512 3.512 0 0 0 3.507 3.498c1.928 0 3.508-1.575 3.508-3.498a3.515 3.515 0 0 0-3.508-3.502"/>
            <path fill="#000" d="M546.639 178a3.51 3.51 0 0 0-3.507 3.498 3.511 3.511 0 0 0 3.507 3.502 3.503 3.503 0 0 0 3.507-3.502A3.502 3.502 0 0 0 546.64 178"/>
            <path fill="#000" d="M544.63 177a3.51 3.51 0 0 0-3.503 3.507c0 1.916 1.578 3.493 3.503 3.493 1.943 0 3.512-1.577 3.512-3.493A3.506 3.506 0 0 0 544.63 177M567.683 285a3.518 3.518 0 0 0-3.508 3.507c0 1.924 1.58 3.493 3.508 3.493 1.932 0 3.507-1.569 3.507-3.493a3.515 3.515 0 0 0-3.507-3.507M562.67 308a3.512 3.512 0 0 0-3.505 3.507c0 1.924 1.58 3.493 3.505 3.493 1.929 0 3.51-1.569 3.51-3.493a3.513 3.513 0 0 0-3.51-3.507M557.666 333a3.512 3.512 0 0 0-3.512 3.502 3.511 3.511 0 0 0 3.512 3.498 3.506 3.506 0 0 0 3.503-3.498 3.507 3.507 0 0 0-3.503-3.502M572.695 264a3.513 3.513 0 0 0-3.51 3.507c0 1.924 1.581 3.493 3.51 3.493a3.504 3.504 0 0 0 3.505-3.493 3.507 3.507 0 0 0-3.505-3.507M580.71 230a3.507 3.507 0 0 0-3.507 3.502A3.512 3.512 0 0 0 580.71 237a3.509 3.509 0 0 0 3.507-3.498A3.504 3.504 0 0 0 580.71 230M587.722 205a3.508 3.508 0 0 0-3.505 3.498 3.508 3.508 0 0 0 7.015 0 3.506 3.506 0 0 0-3.51-3.498M590.726 196a3.5 3.5 0 1 0 0 7 3.505 3.505 0 0 0 3.512-3.502 3.498 3.498 0 0 0-3.512-3.498M593.737 189a3.501 3.501 0 0 0-3.507 3.502 3.506 3.506 0 0 0 3.507 3.498 3.509 3.509 0 0 0 3.507-3.498 3.504 3.504 0 0 0-3.507-3.502M584.716 216a3.505 3.505 0 0 0-3.505 3.498 3.511 3.511 0 0 0 3.505 3.502 3.518 3.518 0 0 0 3.51-3.502c0-1.93-1.581-3.498-3.51-3.498M576.7 246a3.516 3.516 0 0 0-3.506 3.502c0 1.923 1.58 3.498 3.505 3.498 1.93 0 3.51-1.575 3.51-3.498a3.517 3.517 0 0 0-3.51-3.502M603.758 190a3.513 3.513 0 0 0-3.507 3.502 3.512 3.512 0 0 0 3.507 3.498c1.928 0 3.507-1.575 3.507-3.498a3.515 3.515 0 0 0-3.507-3.502"/>
            <path fill="#000" d="M601.756 186a3.519 3.519 0 0 0-3.51 3.507c0 1.924 1.58 3.493 3.51 3.493 1.924 0 3.505-1.569 3.505-3.493 0-1.93-1.58-3.507-3.505-3.507"/>
            <path fill="#000" d="M600.756 183a3.509 3.509 0 0 0-3.512 3.507c0 1.924 1.573 3.493 3.512 3.493a3.501 3.501 0 0 0 3.503-3.493 3.504 3.504 0 0 0-3.503-3.507"/>
            <path fill="#000" d="M595.741 185a3.502 3.502 0 0 0-3.507 3.498A3.503 3.503 0 0 0 595.74 192a3.511 3.511 0 0 0 3.507-3.502 3.51 3.51 0 0 0-3.507-3.498"/>
            <path fill="#000" d="M598.747 183a3.505 3.505 0 0 0-3.507 3.498 3.511 3.511 0 0 0 3.507 3.502 3.511 3.511 0 0 0 3.508-3.502 3.505 3.505 0 0 0-3.508-3.498M571.691 180a3.512 3.512 0 0 0-3.507 3.502A3.506 3.506 0 0 0 571.69 187a3.503 3.503 0 0 0 3.507-3.498 3.51 3.51 0 0 0-3.507-3.502"/>
            <path fill="#000" d="M573.695 181a3.504 3.504 0 0 0-3.507 3.502 3.503 3.503 0 0 0 3.507 3.498 3.506 3.506 0 0 0 3.508-3.498c0-1.94-1.58-3.502-3.508-3.502"/>
            <path fill="#000" d="M568.685 182a3.507 3.507 0 0 0-3.508 3.502 3.511 3.511 0 0 0 3.508 3.498 3.506 3.506 0 0 0 3.507-3.498c0-1.94-1.57-3.502-3.507-3.502"/>
            <path fill="#000" d="M565.676 186a3.507 3.507 0 0 0-3.505 3.507 3.504 3.504 0 0 0 3.505 3.493 3.505 3.505 0 0 0 3.51-3.493 3.508 3.508 0 0 0-3.51-3.507M577.657 189.088c-1.803 0-3.231 1.555-3.46 3.525 2.279.47 4.585.87 6.864 1.3.053-.266.15-.51.15-.79 0-2.22-1.6-4.035-3.554-4.035"/>
            <path fill="#000" d="M575.7 184a3.509 3.509 0 0 0-3.508 3.51c0 1.915 1.567 3.49 3.507 3.49 1.928 0 3.508-1.575 3.508-3.49 0-1.935-1.58-3.51-3.508-3.51M562.672 192a3.507 3.507 0 0 0-3.507 3.498c0 1.925 1.584 3.502 3.507 3.502a3.511 3.511 0 0 0 3.508-3.502 3.499 3.499 0 0 0-3.508-3.498M69.579 70c-.95 0-1.792.417-2.44 1.064 1.45 1.993 2.932 3.957 4.4 5.936.948-.695 1.613-1.811 1.613-3.138 0-2.132-1.61-3.862-3.573-3.862M402.338 158a3.507 3.507 0 0 0-3.507 3.498 3.514 3.514 0 0 0 3.507 3.502 3.517 3.517 0 0 0 3.508-3.502 3.51 3.51 0 0 0-3.508-3.498M412.36 158a3.512 3.512 0 0 0-3.508 3.507 3.498 3.498 0 0 0 3.507 3.493 3.5 3.5 0 0 0 3.507-3.493A3.515 3.515 0 0 0 412.36 158"/>
            <path fill="#000" d="M407.349 157a3.515 3.515 0 0 0-3.508 3.507c0 1.924 1.576 3.493 3.508 3.493 1.927 0 3.507-1.569 3.507-3.493 0-1.93-1.58-3.507-3.507-3.507M395.324 204a3.504 3.504 0 0 0-3.508 3.502 3.503 3.503 0 0 0 3.508 3.498 3.506 3.506 0 0 0 3.507-3.498c0-1.94-1.58-3.502-3.507-3.502M367.263 255a3.505 3.505 0 0 0-3.505 3.498 3.506 3.506 0 0 0 3.505 3.502 3.512 3.512 0 0 0 3.51-3.502c0-1.93-1.581-3.498-3.51-3.498M377.284 236a3.507 3.507 0 0 0-3.505 3.507 3.504 3.504 0 0 0 3.505 3.493c1.929 0 3.51-1.569 3.51-3.493a3.513 3.513 0 0 0-3.51-3.507M386.305 219a3.512 3.512 0 0 0-3.508 3.502 3.506 3.506 0 0 0 3.508 3.498 3.503 3.503 0 0 0 3.507-3.498 3.51 3.51 0 0 0-3.507-3.502M356.24 277c-1.929 0-3.505 1.575-3.505 3.493A3.514 3.514 0 0 0 356.24 284a3.512 3.512 0 0 0 3.51-3.507c0-1.918-1.572-3.493-3.51-3.493M331.186 325a3.51 3.51 0 0 0-3.503 3.507 3.507 3.507 0 0 0 3.503 3.493 3.503 3.503 0 0 0 3.511-3.493 3.506 3.506 0 0 0-3.511-3.507M344.215 300a3.504 3.504 0 0 0-3.505 3.507 3.501 3.501 0 0 0 3.505 3.493c1.933 0 3.51-1.569 3.51-3.493a3.51 3.51 0 0 0-3.51-3.507M403.34 192a3.515 3.515 0 0 0-3.507 3.507c0 1.933 1.584 3.493 3.507 3.493a3.498 3.498 0 0 0 3.508-3.493A3.506 3.506 0 0 0 403.34 192M442.422 165a3.51 3.51 0 0 0-3.508 3.507c0 1.924 1.576 3.493 3.508 3.493 1.927 0 3.507-1.569 3.507-3.493a3.512 3.512 0 0 0-3.507-3.507M433.4 162a3.518 3.518 0 0 0-3.504 3.507c0 1.924 1.58 3.493 3.505 3.493a3.505 3.505 0 0 0 3.51-3.493A3.513 3.513 0 0 0 433.4 162"/>
            <path fill="#000" d="M438.416 162c-1.93 0-3.51 1.577-3.51 3.498a3.512 3.512 0 0 0 3.51 3.502 3.506 3.506 0 0 0 3.505-3.502 3.51 3.51 0 0 0-3.505-3.498M410.357 181a3.5 3.5 0 0 0-3.51 3.498 3.507 3.507 0 0 0 7.015 0 3.505 3.505 0 0 0-3.505-3.498M429.39 163a3.51 3.51 0 0 0-3.503 3.502 3.508 3.508 0 0 0 7.015 0A3.51 3.51 0 0 0 429.39 163M417.37 173a3.51 3.51 0 0 0-3.508 3.507c0 1.924 1.575 3.493 3.508 3.493a3.504 3.504 0 0 0 3.507-3.493A3.506 3.506 0 0 0 417.37 173"/>
            <path fill="#000" d="M423.382 167a3.506 3.506 0 0 0-3.507 3.507 3.504 3.504 0 0 0 3.507 3.493c1.928 0 3.507-1.569 3.507-3.493a3.512 3.512 0 0 0-3.507-3.507M370.271 154a3.518 3.518 0 0 0-3.507 3.507c0 1.924 1.58 3.493 3.507 3.493a3.5 3.5 0 0 0 3.508-3.493A3.51 3.51 0 0 0 370.27 154M328.184 198a3.51 3.51 0 0 0-3.508 3.502 3.509 3.509 0 0 0 3.508 3.498c1.927 0 3.507-1.575 3.507-3.498a3.515 3.515 0 0 0-3.507-3.502"/>
            <path fill="#000" d="M376.286 151a3.505 3.505 0 0 0-3.51 3.507 3.502 3.502 0 0 0 3.51 3.493 3.507 3.507 0 0 0 3.505-3.493 3.51 3.51 0 0 0-3.505-3.507"/>
            <path fill="#000" d="M381.294 151a3.51 3.51 0 0 0-3.507 3.507c0 1.924 1.575 3.493 3.507 3.493 1.932 0 3.508-1.569 3.508-3.493a3.51 3.51 0 0 0-3.508-3.507M347.223 174a3.51 3.51 0 0 0-3.507 3.502 3.503 3.503 0 0 0 3.507 3.498 3.503 3.503 0 0 0 3.508-3.498 3.51 3.51 0 0 0-3.508-3.502M363.257 158a3.51 3.51 0 0 0-3.508 3.498 3.511 3.511 0 0 0 3.508 3.502 3.506 3.506 0 0 0 3.507-3.502c0-1.93-1.57-3.498-3.507-3.498M338.205 185a3.513 3.513 0 0 0-3.508 3.502 3.512 3.512 0 0 0 3.508 3.498c1.927 0 3.507-1.575 3.507-3.498a3.515 3.515 0 0 0-3.507-3.502M355.24 165a3.51 3.51 0 0 0-3.507 3.507c0 1.916 1.575 3.493 3.507 3.493 1.928 0 3.507-1.577 3.507-3.493A3.512 3.512 0 0 0 355.24 165"/>
            <path fill="#000" d="M386.3 153a3.5 3.5 0 0 0 0 7 3.5 3.5 0 1 0 0-7M396.326 161a3.512 3.512 0 0 0-3.508 3.507c0 1.924 1.58 3.493 3.508 3.493 1.932 0 3.507-1.569 3.507-3.493a3.51 3.51 0 0 0-3.507-3.507M318.158 214a3.502 3.502 0 0 0-3.502 3.498 3.503 3.503 0 0 0 3.502 3.502 3.51 3.51 0 0 0 3.512-3.502 3.51 3.51 0 0 0-3.512-3.498M280.084 271a3.515 3.515 0 0 0-3.508 3.507 3.5 3.5 0 0 0 3.508 3.493c1.927 0 3.507-1.56 3.507-3.493 0-1.93-1.58-3.507-3.507-3.507M266.054 294a3.507 3.507 0 0 0-3.507 3.498 3.508 3.508 0 0 0 7.015 0c0-1.93-1.571-3.498-3.508-3.498M294.113 250a3.51 3.51 0 0 0-3.508 3.507c0 1.924 1.576 3.493 3.508 3.493 1.927 0 3.507-1.569 3.507-3.493a3.512 3.512 0 0 0-3.507-3.507M306.138 231a3.512 3.512 0 0 0-3.508 3.502 3.506 3.506 0 0 0 3.508 3.498 3.503 3.503 0 0 0 3.507-3.498 3.51 3.51 0 0 0-3.507-3.502M251.027 319a3.511 3.511 0 0 0-3.511 3.507 3.498 3.498 0 0 0 3.511 3.493c1.93 0 3.503-1.56 3.503-3.493a3.512 3.512 0 0 0-3.503-3.507M298.121 310a3.51 3.51 0 0 0-3.507 3.498A3.511 3.511 0 0 0 298.12 317a3.508 3.508 0 0 0 3.507-3.502 3.507 3.507 0 0 0-3.507-3.498M284.092 336a3.513 3.513 0 0 0-3.507 3.502c0 1.923 1.583 3.498 3.507 3.498 1.928 0 3.507-1.575 3.507-3.498a3.51 3.51 0 0 0-3.507-3.502M383.296 174a3.505 3.505 0 0 0-3.505 3.498 3.506 3.506 0 0 0 3.505 3.502 3.507 3.507 0 0 0 3.51-3.502 3.506 3.506 0 0 0-3.51-3.498M366.26 195a3.508 3.508 0 0 0-3.504 3.498 3.508 3.508 0 0 0 7.014 0 3.506 3.506 0 0 0-3.51-3.498M390.313 166a3.505 3.505 0 0 0-3.507 3.507 3.497 3.497 0 0 0 3.507 3.493 3.5 3.5 0 0 0 3.507-3.493 3.508 3.508 0 0 0-3.507-3.507M357.244 209a3.515 3.515 0 0 0-3.507 3.507c0 1.924 1.575 3.493 3.507 3.493 1.932 0 3.508-1.569 3.508-3.493a3.515 3.515 0 0 0-3.508-3.507M324.175 264a3.507 3.507 0 0 0-3.507 3.498 3.508 3.508 0 0 0 3.507 3.502 3.511 3.511 0 0 0 3.508-3.502 3.51 3.51 0 0 0-3.508-3.498M336.2 244a3.507 3.507 0 0 0-3.507 3.498A3.514 3.514 0 0 0 336.2 251a3.511 3.511 0 0 0 3.508-3.502c0-1.93-1.571-3.498-3.508-3.498M312.15 286a3.512 3.512 0 0 0-3.507 3.507c0 1.924 1.58 3.493 3.507 3.493 1.928 0 3.508-1.569 3.508-3.493A3.512 3.512 0 0 0 312.15 286M347.223 225a3.51 3.51 0 0 0-3.507 3.498 3.517 3.517 0 0 0 3.507 3.502 3.508 3.508 0 0 0 3.508-3.502 3.502 3.502 0 0 0-3.508-3.498M375.28 183a3.51 3.51 0 0 0-3.505 3.502A3.51 3.51 0 0 0 375.28 190c1.929 0 3.51-1.575 3.51-3.498a3.517 3.517 0 0 0-3.51-3.502M461.461 207a3.51 3.51 0 0 0-3.507 3.498 3.511 3.511 0 0 0 3.507 3.502 3.508 3.508 0 0 0 3.508-3.502A3.507 3.507 0 0 0 461.46 207M497.537 176a3.51 3.51 0 0 0-3.508 3.507c0 1.924 1.575 3.493 3.508 3.493a3.504 3.504 0 0 0 3.507-3.493 3.506 3.506 0 0 0-3.507-3.507M490.522 171a3.517 3.517 0 0 0-3.507 3.51c0 1.923 1.58 3.49 3.507 3.49 1.932 0 3.507-1.567 3.507-3.49a3.514 3.514 0 0 0-3.507-3.51"/>
            <path fill="#000" d="M494.53 172a3.508 3.508 0 0 0-3.507 3.502A3.513 3.513 0 0 0 494.53 179a3.5 3.5 0 1 0 0-7M487.516 171a3.515 3.515 0 0 0-3.508 3.502c0 1.923 1.58 3.498 3.508 3.498a3.506 3.506 0 0 0 3.507-3.498 3.507 3.507 0 0 0-3.507-3.502M478.497 179a3.513 3.513 0 0 0-3.507 3.502 3.506 3.506 0 0 0 3.507 3.498 3.509 3.509 0 0 0 3.507-3.498 3.515 3.515 0 0 0-3.507-3.502M473.482 186a3.507 3.507 0 0 0-3.503 3.502 3.506 3.506 0 0 0 7.015 0 3.515 3.515 0 0 0-3.512-3.502M467.474 195a3.51 3.51 0 0 0-3.507 3.498 3.511 3.511 0 0 0 3.507 3.502 3.503 3.503 0 0 0 3.507-3.502 3.502 3.502 0 0 0-3.507-3.498"/>
            <path fill="#000" d="M483.51 174a3.508 3.508 0 0 0-3.51 3.507 3.505 3.505 0 0 0 3.51 3.493 3.507 3.507 0 0 0 3.505-3.493 3.51 3.51 0 0 0-3.506-3.507M1255.115 122a3.515 3.515 0 0 0-3.507 3.502 3.509 3.509 0 0 0 3.507 3.498 3.506 3.506 0 0 0 3.507-3.498 3.513 3.513 0 0 0-3.507-3.502M1290.188 147a3.507 3.507 0 0 0-3.507 3.498 3.508 3.508 0 0 0 7.014 0 3.507 3.507 0 0 0-3.507-3.498M1277.16 137c-1.923 0-3.507 1.575-3.507 3.502 0 1.923 1.584 3.498 3.508 3.498 1.927 0 3.507-1.575 3.507-3.498a3.515 3.515 0 0 0-3.507-3.502M1266.136 129a3.496 3.496 0 0 0-3.506 3.498 3.508 3.508 0 0 0 3.506 3.502 3.515 3.515 0 0 0 3.51-3.502 3.503 3.503 0 0 0-3.51-3.498M517.58 174c-1.928 0-3.509 1.569-3.509 3.498a3.512 3.512 0 0 0 3.51 3.502 3.506 3.506 0 0 0 3.505-3.502A3.505 3.505 0 0 0 517.58 174"/>
            <path fill="#000" d="M514.572 175a3.504 3.504 0 0 0-3.507 3.502 3.503 3.503 0 0 0 3.507 3.498 3.503 3.503 0 0 0 3.507-3.498 3.504 3.504 0 0 0-3.507-3.502"/>
            <path fill="#000" d="M520.585 176a3.507 3.507 0 0 0-3.508 3.498 3.508 3.508 0 0 0 3.508 3.502 3.511 3.511 0 0 0 3.507-3.502 3.51 3.51 0 0 0-3.507-3.498"/>
            <path fill="#000" d="M523.59 179a3.507 3.507 0 0 0-3.506 3.498 3.508 3.508 0 0 0 7.014 0c0-1.93-1.57-3.498-3.507-3.498M510.564 178a3.505 3.505 0 0 0-3.508 3.502 3.499 3.499 0 0 0 3.508 3.498 3.502 3.502 0 0 0 3.507-3.498 3.508 3.508 0 0 0-3.507-3.502M1433.486 287a3.514 3.514 0 0 0-3.507 3.51c0 1.928 1.58 3.49 3.507 3.49 1.928 0 3.508-1.562 3.508-3.49 0-1.94-1.58-3.51-3.508-3.51M1411.44 264a3.51 3.51 0 0 0-3.507 3.502 3.509 3.509 0 0 0 3.507 3.498c1.924 0 3.508-1.575 3.508-3.498 0-1.927-1.584-3.502-3.508-3.502M1390.397 243a3.51 3.51 0 0 0-3.508 3.498 3.511 3.511 0 0 0 3.508 3.502 3.511 3.511 0 0 0 3.507-3.502 3.51 3.51 0 0 0-3.507-3.498M1304.217 159a3.515 3.515 0 0 0-3.507 3.507c0 1.924 1.575 3.493 3.507 3.493 1.932 0 3.507-1.569 3.507-3.493a3.515 3.515 0 0 0-3.507-3.507M1370.355 223a3.51 3.51 0 0 0-3.507 3.498 3.517 3.517 0 0 0 3.507 3.502 3.511 3.511 0 0 0 3.507-3.502c0-1.93-1.57-3.498-3.507-3.498M1319.248 172a3.512 3.512 0 0 0-3.507 3.507c0 1.924 1.58 3.493 3.507 3.493 1.932 0 3.508-1.569 3.508-3.493a3.51 3.51 0 0 0-3.508-3.507M1335.282 187a3.515 3.515 0 0 0-3.507 3.507c0 1.924 1.575 3.493 3.507 3.493 1.928 0 3.507-1.569 3.507-3.493 0-1.93-1.58-3.507-3.507-3.507M1352.317 204a3.51 3.51 0 0 0-3.507 3.507c0 1.924 1.575 3.493 3.507 3.493a3.504 3.504 0 0 0 3.508-3.493 3.506 3.506 0 0 0-3.508-3.507"/>
            <path fill="#000" d="M506.564 184a3.511 3.511 0 0 0-3.516 3.502 3.505 3.505 0 0 0 3.516 3.498 3.498 3.498 0 0 0 3.499-3.498 3.505 3.505 0 0 0-3.499-3.502M484.51 229a3.515 3.515 0 0 0-3.508 3.502c0 1.923 1.58 3.498 3.507 3.498 1.928 0 3.508-1.575 3.508-3.498a3.515 3.515 0 0 0-3.508-3.502M496.537 202a3.508 3.508 0 0 0-3.51 3.502c0 1.927 1.58 3.498 3.51 3.498a3.506 3.506 0 0 0 3.505-3.498 3.501 3.501 0 0 0-3.505-3.502M490.524 214a3.506 3.506 0 0 0-3.51 3.498 3.512 3.512 0 0 0 3.51 3.502 3.5 3.5 0 1 0 0-7M501.545 191a3.515 3.515 0 0 0-3.507 3.507c0 1.924 1.584 3.493 3.507 3.493 1.928 0 3.507-1.569 3.507-3.493a3.512 3.512 0 0 0-3.507-3.507M445.428 335a3.505 3.505 0 0 0-3.507 3.498 3.511 3.511 0 0 0 3.507 3.502 3.517 3.517 0 0 0 3.507-3.502 3.51 3.51 0 0 0-3.507-3.498M454.447 309a3.515 3.515 0 0 0-3.508 3.507c0 1.933 1.584 3.493 3.508 3.493 1.927 0 3.507-1.56 3.507-3.493a3.512 3.512 0 0 0-3.507-3.507M462.466 286a3.51 3.51 0 0 0-3.51 3.502 3.51 3.51 0 0 0 3.51 3.498 3.51 3.51 0 0 0 3.505-3.498 3.51 3.51 0 0 0-3.505-3.502M470.48 265a3.515 3.515 0 0 0-3.507 3.502c0 1.923 1.58 3.498 3.507 3.498a3.512 3.512 0 0 0 3.507-3.498A3.513 3.513 0 0 0 470.48 265M477.495 246a3.51 3.51 0 0 0-3.508 3.507 3.5 3.5 0 0 0 3.508 3.493 3.5 3.5 0 0 0 3.507-3.493 3.51 3.51 0 0 0-3.507-3.507M407.353 247a3.506 3.506 0 0 0-3.512 3.502 3.505 3.505 0 0 0 3.512 3.498 3.498 3.498 0 0 0 3.503-3.498 3.499 3.499 0 0 0-3.503-3.502M439.415 189a3.507 3.507 0 0 0-3.507 3.502 3.506 3.506 0 0 0 7.015 0 3.515 3.515 0 0 0-3.508-3.502M445.428 180a3.515 3.515 0 0 0-3.507 3.507c0 1.924 1.575 3.493 3.507 3.493 1.928 0 3.507-1.569 3.507-3.493 0-1.93-1.58-3.507-3.507-3.507M460.46 167a3.505 3.505 0 0 0-3.508 3.498 3.508 3.508 0 0 0 7.015 0 3.507 3.507 0 0 0-3.508-3.498"/>
            <path fill="#000" d="M455.449 169a3.505 3.505 0 0 0-3.507 3.498 3.517 3.517 0 0 0 3.507 3.502 3.508 3.508 0 0 0 3.507-3.502A3.496 3.496 0 0 0 455.45 169M432.399 200a3.507 3.507 0 0 0-3.505 3.507 3.498 3.498 0 0 0 3.505 3.493c1.929 0 3.51-1.569 3.51-3.493 0-1.93-1.581-3.507-3.51-3.507"/>
            <path fill="#000" d="M450.436 173a3.501 3.501 0 0 0-3.505 3.502 3.506 3.506 0 0 0 3.505 3.498c1.938 0 3.51-1.57 3.51-3.498a3.502 3.502 0 0 0-3.51-3.502M398.33 267a3.51 3.51 0 0 0-3.507 3.498A3.511 3.511 0 0 0 398.33 274a3.508 3.508 0 0 0 3.507-3.502A3.507 3.507 0 0 0 398.33 267M416.367 229a3.51 3.51 0 0 0-3.507 3.498 3.511 3.511 0 0 0 3.507 3.502 3.514 3.514 0 0 0 3.508-3.502c0-1.93-1.584-3.498-3.508-3.498M388.313 288a3.506 3.506 0 0 0-3.511 3.507 3.503 3.503 0 0 0 3.511 3.493 3.504 3.504 0 0 0 3.503-3.493 3.507 3.507 0 0 0-3.503-3.507M424.386 213a3.508 3.508 0 0 0-3.51 3.502 3.507 3.507 0 0 0 3.51 3.498 3.5 3.5 0 1 0 0-7M468.476 169a3.507 3.507 0 0 0-3.507 3.498 3.508 3.508 0 0 0 3.507 3.502 3.511 3.511 0 0 0 3.507-3.502 3.51 3.51 0 0 0-3.507-3.498"/>
            <path fill="#000" d="M464.47 167a3.513 3.513 0 0 0-3.51 3.507c0 1.924 1.58 3.493 3.51 3.493a3.507 3.507 0 0 0 3.505-3.493A3.51 3.51 0 0 0 464.47 167M377.286 312a3.51 3.51 0 0 0-3.507 3.507c0 1.924 1.575 3.493 3.507 3.493 1.928 0 3.507-1.569 3.507-3.493a3.512 3.512 0 0 0-3.507-3.507M439.415 256a3.512 3.512 0 0 0-3.507 3.507c0 1.924 1.58 3.493 3.507 3.493a3.5 3.5 0 1 0 0-7M421.378 299a3.507 3.507 0 0 0-3.507 3.502 3.506 3.506 0 0 0 3.507 3.498 3.5 3.5 0 1 0 0-7M430.399 277a3.503 3.503 0 0 0-3.51 3.498 3.508 3.508 0 0 0 7.015 0 3.508 3.508 0 0 0-3.505-3.498M447.432 238a3.512 3.512 0 0 0-3.507 3.507 3.498 3.498 0 0 0 3.507 3.493c1.924 0 3.507-1.56 3.507-3.493a3.52 3.52 0 0 0-3.507-3.507M410.35 324a3.51 3.51 0 0 0-3.502 3.498A3.506 3.506 0 0 0 410.35 331a3.505 3.505 0 0 0 3.511-3.502 3.51 3.51 0 0 0-3.511-3.498M454.447 221c-1.924 0-3.508 1.569-3.508 3.498a3.514 3.514 0 0 0 3.508 3.502 3.506 3.506 0 0 0 3.507-3.502c0-1.93-1.57-3.498-3.507-3.498M302.134 147a3.509 3.509 0 0 0-3.512 3.507c0 1.924 1.573 3.493 3.512 3.493a3.501 3.501 0 0 0 3.503-3.493 3.504 3.504 0 0 0-3.503-3.507M99.71 224a3.508 3.508 0 0 0-3.51 3.507A3.505 3.505 0 0 0 99.71 231c1.924 0 3.505-1.569 3.505-3.493A3.512 3.512 0 0 0 99.71 224M79.666 244a3.51 3.51 0 0 0-3.507 3.498A3.511 3.511 0 0 0 79.666 251a3.503 3.503 0 0 0 3.507-3.502A3.502 3.502 0 0 0 79.666 244M117.745 205a3.513 3.513 0 0 0-3.507 3.502 3.506 3.506 0 0 0 3.507 3.498 3.509 3.509 0 0 0 3.508-3.498 3.515 3.515 0 0 0-3.508-3.502M134.785 188a3.504 3.504 0 0 0-3.512 3.498 3.516 3.516 0 0 0 3.512 3.502 3.509 3.509 0 0 0 3.503-3.502 3.497 3.497 0 0 0-3.503-3.498M36.576 288a3.502 3.502 0 0 0-3.507 3.498A3.503 3.503 0 0 0 36.576 295a3.511 3.511 0 0 0 3.508-3.502A3.51 3.51 0 0 0 36.576 288M150.816 173c-1.929 0-3.51 1.569-3.51 3.498a3.512 3.512 0 0 0 3.51 3.502 3.506 3.506 0 0 0 3.506-3.502 3.505 3.505 0 0 0-3.506-3.498M12.528 311a3.513 3.513 0 0 0-3.51 3.502c0 1.927 1.581 3.498 3.51 3.498a3.506 3.506 0 0 0 3.505-3.498A3.507 3.507 0 0 0 12.528 311M58.62 265a3.51 3.51 0 0 0-3.505 3.507A3.501 3.501 0 0 0 58.62 272c1.933 0 3.51-1.569 3.51-3.493A3.516 3.516 0 0 0 58.62 265M223.967 118a3.518 3.518 0 0 0-3.508 3.507c0 1.933 1.58 3.493 3.508 3.493a3.5 3.5 0 0 0 3.507-3.493 3.515 3.515 0 0 0-3.507-3.507M232.985 116a3.513 3.513 0 0 0-3.507 3.5c0 1.928 1.58 3.5 3.507 3.5a3.507 3.507 0 0 0 3.508-3.5c0-1.928-1.571-3.5-3.508-3.5M191.9 137a3.512 3.512 0 0 0-3.508 3.507c0 1.924 1.58 3.493 3.508 3.493 1.932 0 3.507-1.569 3.507-3.493A3.51 3.51 0 0 0 191.9 137M214.946 123a3.513 3.513 0 0 0-3.505 3.502 3.512 3.512 0 0 0 3.505 3.498 3.51 3.51 0 0 0 3.51-3.498 3.51 3.51 0 0 0-3.51-3.502M165.846 159a3.51 3.51 0 0 0-3.508 3.498 3.511 3.511 0 0 0 3.508 3.502 3.508 3.508 0 0 0 3.507-3.502 3.507 3.507 0 0 0-3.507-3.498M179.875 147a3.505 3.505 0 0 0-3.508 3.498 3.508 3.508 0 0 0 7.015 0 3.507 3.507 0 0 0-3.507-3.498M203.925 129a3.515 3.515 0 0 0-3.507 3.502 3.509 3.509 0 0 0 3.507 3.498 3.506 3.506 0 0 0 3.507-3.498 3.513 3.513 0 0 0-3.507-3.502M217.952 150a3.508 3.508 0 0 0-3.505 3.498 3.508 3.508 0 0 0 7.014 0 3.506 3.506 0 0 0-3.51-3.498M258.038 125a3.51 3.51 0 0 0-3.508 3.502 3.503 3.503 0 0 0 3.508 3.498 3.503 3.503 0 0 0 3.507-3.498 3.51 3.51 0 0 0-3.507-3.502M229.98 141a3.518 3.518 0 0 0-3.508 3.507c0 1.933 1.58 3.493 3.507 3.493a3.5 3.5 0 0 0 3.507-3.493A3.515 3.515 0 0 0 229.98 141M240 134c-1.923 0-3.507 1.569-3.507 3.498A3.514 3.514 0 0 0 240 141a3.506 3.506 0 0 0 3.507-3.502c0-1.93-1.57-3.498-3.507-3.498M266.059 124a3.512 3.512 0 0 0-3.512 3.502 3.511 3.511 0 0 0 3.512 3.498 3.506 3.506 0 0 0 3.503-3.498 3.507 3.507 0 0 0-3.503-3.502M250.02 128a3.512 3.512 0 0 0-3.506 3.507c0 1.924 1.58 3.493 3.507 3.493 1.932 0 3.507-1.569 3.507-3.493a3.51 3.51 0 0 0-3.507-3.507M177.868 189a3.507 3.507 0 0 0-3.505 3.507 3.504 3.504 0 0 0 3.505 3.493c1.93 0 3.51-1.569 3.51-3.493a3.513 3.513 0 0 0-3.51-3.507M161.837 206a3.51 3.51 0 0 0-3.507 3.498 3.511 3.511 0 0 0 3.507 3.502 3.506 3.506 0 0 0 3.507-3.502c0-1.93-1.57-3.498-3.507-3.498M205.933 161a3.506 3.506 0 0 0-3.511 3.507c0 1.916 1.568 3.493 3.511 3.493a3.51 3.51 0 0 0 3.503-3.493 3.507 3.507 0 0 0-3.503-3.507M145.806 224c-1.929 0-3.51 1.569-3.51 3.498a3.512 3.512 0 0 0 3.51 3.502 3.506 3.506 0 0 0 3.505-3.502 3.505 3.505 0 0 0-3.505-3.498M192.902 174a3.498 3.498 0 0 0-3.507 3.502 3.503 3.503 0 0 0 3.507 3.498 3.511 3.511 0 0 0 3.507-3.498c0-1.94-1.58-3.502-3.507-3.502M87.683 288a3.515 3.515 0 0 0-3.508 3.502c0 1.923 1.58 3.498 3.508 3.498a3.512 3.512 0 0 0 3.507-3.498A3.513 3.513 0 0 0 87.683 288M127.766 244a3.512 3.512 0 0 0-3.507 3.507 3.504 3.504 0 0 0 3.507 3.493c1.932 0 3.507-1.569 3.507-3.493a3.515 3.515 0 0 0-3.507-3.507M65.637 312a3.511 3.511 0 0 0-3.508 3.51c0 1.928 1.576 3.49 3.508 3.49 1.927 0 3.507-1.562 3.507-3.49 0-1.94-1.58-3.51-3.507-3.51M42.589 337a3.502 3.502 0 0 0-3.508 3.498A3.503 3.503 0 0 0 42.59 344a3.514 3.514 0 0 0 3.507-3.502c0-1.93-1.584-3.498-3.507-3.498M108.724 265a3.507 3.507 0 0 0-3.505 3.507 3.498 3.498 0 0 0 3.505 3.493 3.5 3.5 0 1 0 0-7M241.002 116a3.515 3.515 0 0 0-3.507 3.507c0 1.924 1.584 3.493 3.507 3.493a3.5 3.5 0 1 0 0-7M30.56 241a3.51 3.51 0 0 0-3.504 3.507A3.496 3.496 0 0 0 30.56 248c1.935 0 3.512-1.56 3.512-3.493A3.517 3.517 0 0 0 30.559 241M7.513 263a3.515 3.515 0 0 0-3.505 3.507A3.501 3.501 0 0 0 7.513 270c1.93 0 3.51-1.56 3.51-3.493 0-1.93-1.58-3.507-3.51-3.507M164.843 100a3.507 3.507 0 0 0-3.507 3.504 3.505 3.505 0 0 0 3.507 3.496c1.928 0 3.508-1.57 3.508-3.496a3.512 3.512 0 0 0-3.508-3.504M141.798 110a3.507 3.507 0 0 0-3.51 3.502 3.508 3.508 0 0 0 7.015 0 3.508 3.508 0 0 0-3.505-3.502M128.768 118a3.507 3.507 0 0 0-3.507 3.498 3.511 3.511 0 0 0 3.507 3.502 3.508 3.508 0 0 0 3.508-3.502 3.505 3.505 0 0 0-3.508-3.498M174.864 98a3.508 3.508 0 0 0-3.507 3.502 3.505 3.505 0 0 0 3.507 3.498 3.505 3.505 0 0 0 3.508-3.498A3.508 3.508 0 0 0 174.864 98M153.82 104a3.51 3.51 0 0 0-3.507 3.504c0 1.924 1.58 3.496 3.507 3.496 1.928 0 3.508-1.572 3.508-3.496A3.51 3.51 0 0 0 153.82 104M51.61 222a3.5 3.5 0 1 0 0 7 3.503 3.503 0 0 0 3.505-3.498A3.504 3.504 0 0 0 51.61 222M153.823 133a3.51 3.51 0 0 0-3.51 3.502 3.51 3.51 0 0 0 3.51 3.498c1.924 0 3.505-1.575 3.505-3.498a3.516 3.516 0 0 0-3.505-3.502M166.854 124a3.509 3.509 0 0 0-3.514 3.502c0 1.936 1.58 3.498 3.514 3.498 1.933 0 3.5-1.562 3.5-3.498a3.498 3.498 0 0 0-3.5-3.502M139.791 143a3.507 3.507 0 0 0-3.507 3.498A3.508 3.508 0 0 0 139.79 150a3.511 3.511 0 0 0 3.508-3.502A3.51 3.51 0 0 0 139.79 143M189.893 112a3.51 3.51 0 0 0-3.505 3.504 3.508 3.508 0 0 0 7.015 0 3.51 3.51 0 0 0-3.51-3.504M124.76 156a3.51 3.51 0 0 0-3.507 3.507c0 1.924 1.575 3.493 3.507 3.493 1.932 0 3.507-1.569 3.507-3.493A3.51 3.51 0 0 0 124.76 156M90.689 186a3.517 3.517 0 0 0-3.507 3.51c0 1.915 1.58 3.49 3.507 3.49 1.932 0 3.507-1.575 3.507-3.49A3.514 3.514 0 0 0 90.69 186M71.647 203a3.508 3.508 0 0 0-3.505 3.498A3.514 3.514 0 0 0 71.647 210a3.51 3.51 0 0 0 3.51-3.502 3.503 3.503 0 0 0-3.51-3.498M108.727 170a3.513 3.513 0 0 0-3.508 3.498 3.508 3.508 0 0 0 3.508 3.502 3.511 3.511 0 0 0 3.507-3.502c0-1.92-1.58-3.498-3.507-3.498M178.87 117a3.508 3.508 0 0 0-3.505 3.498A3.517 3.517 0 0 0 178.87 124a3.518 3.518 0 0 0 3.51-3.502 3.509 3.509 0 0 0-3.51-3.498M198.914 108a3.511 3.511 0 0 0-3.507 3.502 3.507 3.507 0 0 0 7.015 0 3.508 3.508 0 0 0-3.508-3.502M207.935 107a3.504 3.504 0 0 0-3.51 3.502 3.503 3.503 0 0 0 3.51 3.498 3.508 3.508 0 0 0 3.506-3.498 3.508 3.508 0 0 0-3.506-3.502M324.178 138a3.506 3.506 0 0 0-3.51 3.498 3.507 3.507 0 0 0 7.015 0 3.508 3.508 0 0 0-3.505-3.498"/>
            <path fill="#000" d="M317.159 139a3.501 3.501 0 0 0-3.506 3.502A3.506 3.506 0 0 0 317.16 146c1.937 0 3.51-1.57 3.51-3.498a3.502 3.502 0 0 0-3.51-3.502M310.142 142a3.508 3.508 0 0 0-3.503 3.498 3.509 3.509 0 0 0 3.503 3.502 3.505 3.505 0 0 0 3.511-3.502 3.504 3.504 0 0 0-3.511-3.498M330.188 139a3.51 3.51 0 0 0-3.507 3.502 3.503 3.503 0 0 0 3.507 3.498 3.506 3.506 0 0 0 3.507-3.498 3.512 3.512 0 0 0-3.507-3.502M114.741 128a3.509 3.509 0 0 0-3.51 3.498 3.51 3.51 0 0 0 3.51 3.502 3.503 3.503 0 0 0 3.505-3.502 3.502 3.502 0 0 0-3.505-3.498M293.11 155a3.512 3.512 0 0 0-3.507 3.507c0 1.924 1.58 3.493 3.508 3.493 1.932 0 3.507-1.569 3.507-3.493a3.51 3.51 0 0 0-3.507-3.507M336.2 151a3.515 3.515 0 0 0-3.507 3.502 3.506 3.506 0 1 0 7.015 0A3.507 3.507 0 0 0 336.2 151M277.077 218a3.502 3.502 0 0 0-3.507 3.498 3.514 3.514 0 0 0 3.507 3.502 3.514 3.514 0 0 0 3.508-3.502 3.502 3.502 0 0 0-3.508-3.498M300.125 187a3.51 3.51 0 0 0-3.507 3.498 3.511 3.511 0 0 0 3.507 3.502 3.508 3.508 0 0 0 3.508-3.502 3.507 3.507 0 0 0-3.508-3.498M250.02 256a3.512 3.512 0 0 0-3.506 3.507c0 1.924 1.58 3.493 3.507 3.493 1.928 0 3.507-1.569 3.507-3.493a3.512 3.512 0 0 0-3.507-3.507M289.1 201a3.51 3.51 0 0 0-3.505 3.502A3.503 3.503 0 0 0 289.1 208a3.499 3.499 0 0 0 3.51-3.498A3.505 3.505 0 0 0 289.1 201M264.05 236a3.514 3.514 0 0 0-3.507 3.51c0 1.915 1.575 3.49 3.507 3.49 1.937 0 3.507-1.575 3.507-3.49 0-1.935-1.57-3.51-3.507-3.51M200.916 327a3.515 3.515 0 0 0-3.505 3.507 3.501 3.501 0 0 0 3.505 3.493 3.5 3.5 0 0 0 3.51-3.493 3.513 3.513 0 0 0-3.51-3.507M217.956 301a3.505 3.505 0 0 0-3.51 3.502 3.51 3.51 0 0 0 3.51 3.498 3.51 3.51 0 0 0 3.505-3.498 3.504 3.504 0 0 0-3.505-3.502M233.99 278a3.509 3.509 0 0 0-3.51 3.498 3.51 3.51 0 0 0 3.51 3.502 3.503 3.503 0 0 0 3.505-3.502A3.502 3.502 0 0 0 233.99 278M350.23 145a3.51 3.51 0 0 0-3.508 3.498A3.511 3.511 0 0 0 350.23 152a3.508 3.508 0 0 0 3.507-3.502A3.507 3.507 0 0 0 350.23 145"/>
            <path fill="#000" d="M355.244 145a3.512 3.512 0 0 0-3.511 3.502 3.511 3.511 0 0 0 3.511 3.498 3.506 3.506 0 0 0 3.503-3.498 3.507 3.507 0 0 0-3.503-3.502M320.17 165a3.506 3.506 0 0 0-3.51 3.498 3.507 3.507 0 0 0 7.014 0A3.508 3.508 0 0 0 320.17 165M310.146 175a3.51 3.51 0 0 0-3.507 3.498 3.511 3.511 0 0 0 3.507 3.502 3.511 3.511 0 0 0 3.507-3.502 3.51 3.51 0 0 0-3.507-3.498M343.215 147a3.515 3.515 0 0 0-3.507 3.502 3.509 3.509 0 0 0 3.507 3.498 3.509 3.509 0 0 0 3.507-3.498 3.515 3.515 0 0 0-3.507-3.502M328.186 157a3.506 3.506 0 0 0-3.51 3.498 3.512 3.512 0 0 0 3.51 3.502 3.511 3.511 0 0 0 3.505-3.502 3.505 3.505 0 0 0-3.505-3.498M205.929 205a3.51 3.51 0 0 0-3.507 3.498 3.511 3.511 0 0 0 3.507 3.502 3.508 3.508 0 0 0 3.507-3.502A3.507 3.507 0 0 0 205.93 205M232.983 175a3.504 3.504 0 0 0-3.505 3.507 3.501 3.501 0 0 0 3.505 3.493c1.93 0 3.51-1.569 3.51-3.493a3.513 3.513 0 0 0-3.51-3.507M219.958 189a3.51 3.51 0 0 0-3.507 3.498 3.511 3.511 0 0 0 3.507 3.502 3.508 3.508 0 0 0 3.508-3.502 3.507 3.507 0 0 0-3.508-3.498M256.033 153a3.51 3.51 0 0 0-3.507 3.498 3.511 3.511 0 0 0 3.507 3.502 3.508 3.508 0 0 0 3.508-3.502 3.507 3.507 0 0 0-3.508-3.498M245.01 163a3.51 3.51 0 0 0-3.507 3.507c0 1.924 1.575 3.493 3.507 3.493 1.933 0 3.508-1.569 3.508-3.493A3.51 3.51 0 0 0 245.01 163M190.898 223a3.515 3.515 0 0 0-3.508 3.502 3.509 3.509 0 0 0 3.508 3.498 3.506 3.506 0 0 0 3.507-3.498 3.513 3.513 0 0 0-3.507-3.502M137.787 287a3.505 3.505 0 0 0-3.507 3.498 3.511 3.511 0 0 0 3.507 3.502 3.514 3.514 0 0 0 3.507-3.502 3.507 3.507 0 0 0-3.507-3.498M156.829 264a3.519 3.519 0 0 0-3.51 3.507c0 1.924 1.581 3.493 3.51 3.493a3.504 3.504 0 0 0 3.505-3.493 3.512 3.512 0 0 0-3.505-3.507M266.054 144a3.513 3.513 0 0 0-3.507 3.502 3.512 3.512 0 0 0 3.507 3.498 3.512 3.512 0 0 0 3.508-3.498 3.513 3.513 0 0 0-3.508-3.502M173.867 243a3.506 3.506 0 0 0-3.512 3.507 3.503 3.503 0 0 0 3.512 3.493 3.507 3.507 0 0 0 3.503-3.493 3.51 3.51 0 0 0-3.503-3.507M283.09 164a3.51 3.51 0 0 0-3.508 3.507c0 1.924 1.576 3.493 3.508 3.493a3.504 3.504 0 0 0 3.507-3.493A3.506 3.506 0 0 0 283.09 164M118.747 311a3.505 3.505 0 0 0-3.507 3.498 3.517 3.517 0 0 0 3.507 3.502 3.514 3.514 0 0 0 3.508-3.502 3.502 3.502 0 0 0-3.508-3.498M284.092 134a3.505 3.505 0 0 0-3.507 3.498 3.511 3.511 0 0 0 3.507 3.502c1.923 0 3.507-1.577 3.507-3.502 0-1.93-1.584-3.498-3.507-3.498M275.073 138a3.505 3.505 0 0 0-3.507 3.498 3.511 3.511 0 0 0 3.507 3.502 3.499 3.499 0 1 0 0-7M298.121 131a3.51 3.51 0 0 0-3.507 3.502A3.503 3.503 0 0 0 298.12 138a3.506 3.506 0 0 0 3.507-3.498 3.512 3.512 0 0 0-3.507-3.502"/>
            <path fill="#000" d="M291.11 132a3.509 3.509 0 0 0-3.51 3.507c0 1.924 1.572 3.493 3.51 3.493a3.501 3.501 0 0 0 3.504-3.493A3.504 3.504 0 0 0 291.11 132M97.706 336a3.51 3.51 0 0 0-3.51 3.51c0 1.928 1.572 3.49 3.51 3.49 1.924 0 3.505-1.562 3.505-3.49 0-1.94-1.58-3.51-3.505-3.51M272.071 175a3.509 3.509 0 0 0-3.512 3.507c0 1.924 1.573 3.493 3.512 3.493a3.501 3.501 0 0 0 3.503-3.493 3.504 3.504 0 0 0-3.503-3.507M149.812 332a3.512 3.512 0 0 0-3.507 3.502 3.506 3.506 0 0 0 3.507 3.498 3.503 3.503 0 0 0 3.507-3.498 3.51 3.51 0 0 0-3.507-3.502M248.015 204a3.507 3.507 0 0 0-3.506 3.502 3.506 3.506 0 0 0 3.506 3.498 3.501 3.501 0 0 0 3.509-3.498 3.502 3.502 0 0 0-3.51-3.502M233.987 221a3.505 3.505 0 0 0-3.507 3.498 3.517 3.517 0 0 0 3.507 3.502 3.514 3.514 0 0 0 3.508-3.502 3.502 3.502 0 0 0-3.508-3.498M186.89 283a3.507 3.507 0 0 0-3.508 3.498 3.514 3.514 0 0 0 3.507 3.502 3.517 3.517 0 0 0 3.508-3.502 3.51 3.51 0 0 0-3.508-3.498M219.956 240a3.512 3.512 0 0 0-3.505 3.507c0 1.924 1.58 3.493 3.505 3.493a3.505 3.505 0 0 0 3.51-3.493 3.508 3.508 0 0 0-3.51-3.507M168.852 307a3.51 3.51 0 0 0-3.508 3.502 3.509 3.509 0 0 0 3.508 3.498c1.923 0 3.507-1.575 3.507-3.498 0-1.927-1.584-3.502-3.507-3.502M203.925 261a3.51 3.51 0 0 0-3.507 3.498 3.517 3.517 0 0 0 3.507 3.502 3.517 3.517 0 0 0 3.507-3.502 3.51 3.51 0 0 0-3.507-3.498M261.044 188a3.51 3.51 0 0 0-3.507 3.507c0 1.924 1.575 3.493 3.507 3.493 1.928 0 3.507-1.569 3.507-3.493a3.512 3.512 0 0 0-3.507-3.507"/>
        </g>
    </g>
</svg>
