<svg xmlns="http://www.w3.org/2000/svg" xmlns:xlink="http://www.w3.org/1999/xlink" width="103" height="39" viewBox="0 0 103 39">
    <defs>
        <path id="a" d="M0 38.848h102.584V0H0z"/>
    </defs>
    <g fill="none" fill-rule="evenodd">
        <path fill="#202020" d="M7.197 12.55c0 3.086.051 5.21.153 6.374.103 1.164.285 2.029.551 2.595.385.88.933 1.513 1.643 1.899.71.386 1.674.579 2.888.579 1.228 0 2.197-.193 2.907-.58.711-.385 1.257-1.017 1.643-1.898.277-.615.469-1.537.577-2.767.109-1.23.162-3.297.162-6.202 0-2.894-.053-4.956-.162-6.185-.108-1.23-.3-2.152-.577-2.767-.386-.88-.932-1.512-1.643-1.9-.71-.384-1.679-.577-2.907-.577-1.214 0-2.178.193-2.888.578-.71.387-1.258 1.019-1.643 1.899-.266.567-.448 1.432-.551 2.595-.102 1.164-.153 3.282-.153 6.357M0 12.55c0-1.616.312-3.165.939-4.648.627-1.482 1.536-2.845 2.73-4.087C4.945 2.525 6.301 1.567 7.734.94c1.434-.627 3-.94 4.698-.94 1.711 0 3.283.313 4.716.94 1.435.627 2.789 1.586 4.067 2.875 1.205 1.242 2.124 2.608 2.754 4.096.634 1.489.951 3.035.951 4.639 0 1.64-.317 3.207-.951 4.7-.63 1.497-1.549 2.859-2.754 4.089-1.241 1.278-2.584 2.227-4.031 2.848-1.445.62-3.029.93-4.752.93-1.711 0-3.282-.31-4.714-.93-1.436-.621-2.786-1.57-4.049-2.848-1.194-1.23-2.103-2.596-2.73-4.096A12.062 12.062 0 0 1 0 12.55M37.78 1.59v10.633h3.383c1.362 0 2.263-.289 2.703-.868.439-.578.66-2.128.66-4.647 0-2.279-.221-3.7-.66-4.268-.44-.567-1.398-.85-2.866-.85h-3.22zm-9.005 21.773h2.93V1.59h-2.93V.487h12.46c3.387 0 5.907.503 7.559 1.51 1.65 1.007 2.477 2.553 2.477 4.638 0 2.183-.852 3.82-2.558 4.91-1.706 1.091-4.266 1.637-7.677 1.637H37.78v10.181h3.417v1.193H28.775v-1.193zM54.042 24.558v-1.193h2.93V1.592h-2.514V.489H74.53l.073 6.329h-1.211c-.822-2.05-1.653-3.433-2.497-4.15-.842-.717-2.074-1.076-3.69-1.076h-4.158v9.89c.098.014.208.023.334.029.127.006.3.008.515.008 1.315 0 2.309-.346 2.985-1.04.676-.692 1.114-1.817 1.32-3.372h1.21v10.272h-1.21c-.134-1.663-.543-2.858-1.23-3.581-.687-.723-1.76-1.085-3.22-1.085h-.704v10.652h4.032c1.989 0 3.545-.525 4.666-1.574 1.12-1.048 2-2.802 2.64-5.262h1.139l-.253 8.029h-21.23zM78.279 24.558v-1.193h1.771c.507 0 .899-.073 1.176-.218.278-.144.639-.548 1.085-1.211l5.552-8.156L80.43 1.592h-2.151V.489h11.7v1.103h-2.477l4.14 7.034 4.087-6.076c.013-.024.029-.054.055-.091.108-.156.163-.295.163-.415 0-.157-.062-.272-.182-.344-.12-.072-.306-.108-.559-.108h-2.298V.489h8.192v1.103h-1.592c-.783 0-1.322.075-1.617.226-.297.15-.624.485-.986 1.004l-4.63 6.709 8.337 13.834h1.972v1.193H90.992v-1.193h2.622l-5.118-8.482-4.557 6.927a1.953 1.953 0 0 0-.235.488c-.061.18-.09.332-.09.45 0 .195.078.345.234.454.157.108.386.163.688.163h2.079v1.193h-8.336zM6.314 34.91c0-.855-.172-1.512-.515-1.97-.343-.457-.824-.685-1.44-.685-.605 0-1.076.228-1.42.686-.348.457-.522 1.093-.533 1.905v.53c0 .829.175 1.48.521 1.954.35.474.827.71 1.44.71.615 0 1.091-.223 1.426-.67.338-.447.512-1.09.521-1.924v-.536zm.946.466c0 .707-.118 1.324-.355 1.85-.238.528-.575.93-1.013 1.206-.434.278-.943.416-1.525.416-.57 0-1.074-.138-1.51-.418a2.748 2.748 0 0 1-1.022-1.194c-.245-.516-.372-1.115-.376-1.796v-.52c0-.694.12-1.306.361-1.838.241-.531.582-.94 1.023-1.221a2.748 2.748 0 0 1 1.515-.424c.577 0 1.087.14 1.526.419.444.279.783.684 1.021 1.214.237.53.355 1.147.355 1.85v.456zM9.739 35.147h1.709c.509 0 .898-.12 1.169-.36.269-.24.407-.587.407-1.04 0-.43-.138-.773-.407-1.032-.271-.259-.641-.393-1.114-.402H9.739v2.834zm0 .778v2.824h-.951v-7.214h2.66c.79 0 1.409.201 1.854.604.45.403.673.938.673 1.6 0 .702-.218 1.24-.657 1.617-.436.38-1.064.569-1.879.569h-1.7zM19.368 35.415h-3.126v2.556h3.63v.778h-4.58v-7.213h4.532v.777h-3.582v2.324h3.126zM22.11 35.054h1.463c.472 0 .848-.122 1.125-.368.28-.244.42-.572.42-.982 0-.446-.133-.79-.401-1.028-.263-.237-.648-.36-1.15-.362H22.11v2.74zm1.695.778H22.11v2.918h-.956v-7.214h2.389c.811 0 1.436.185 1.874.555.438.37.657.909.657 1.615 0 .45-.121.84-.364 1.174-.245.334-.58.583-1.014.748l1.694 3.062v.06h-1.019l-1.566-2.918zM28.756 36.084h2.454l-1.227-3.374-1.227 3.374zm2.735.778h-3.022l-.678 1.888h-.981l2.755-7.214h.834l2.758 7.214h-.976l-.69-1.888zM38.573 32.313h-2.32v6.436h-.945v-6.436h-2.314v-.778h5.579z"/>
        <mask id="b" fill="#fff">
            <use xlink:href="#a"/>
        </mask>
        <path fill="#202020" d="M39.815 38.749h.95v-7.213h-.95zM48.15 38.749h-.956l-3.632-5.56v5.56h-.956v-7.213h.956l3.643 5.583v-5.583h.945zM55.267 37.803c-.245.35-.587.61-1.022.786-.438.172-.949.259-1.53.259-.589 0-1.11-.137-1.564-.413a2.758 2.758 0 0 1-1.059-1.176c-.25-.51-.377-1.1-.385-1.77v-.628c0-1.088.254-1.93.761-2.528.508-.597 1.221-.897 2.14-.897.752 0 1.357.193 1.815.578.46.385.741.93.844 1.637h-.95c-.18-.958-.747-1.437-1.705-1.437-.638 0-1.12.225-1.449.672-.33.449-.496 1.097-.5 1.946v.59c0 .81.187 1.455.555 1.932.37.478.87.716 1.501.716.358 0 .671-.04.938-.118.266-.08.49-.213.665-.401v-1.616h-1.67v-.778h2.615v2.646zM63.644 35.415h-3.127v2.556h3.632v.778h-4.582v-7.213H64.1v.777h-3.583v2.324h3.127zM67.789 34.3l1.729-2.764h1.119l-2.28 3.577 2.335 3.636H69.56l-1.772-2.814-1.784 2.814H64.88l2.339-3.636-2.285-3.577h1.115zM72.85 35.147h1.71c.508 0 .895-.12 1.168-.36.27-.24.406-.587.406-1.04 0-.43-.136-.773-.406-1.032-.273-.259-.643-.393-1.115-.402H72.85v2.834zm0 .778v2.824h-.95v-7.214h2.66c.79 0 1.407.201 1.854.604.45.403.671.938.671 1.6 0 .702-.217 1.24-.657 1.617-.435.38-1.063.569-1.879.569H72.85zM82.478 35.415h-3.127v2.556h3.633v.778h-4.583v-7.213h4.533v.777h-3.583v2.324h3.127zM89.814 38.749h-.956l-3.632-5.56v5.56h-.956v-7.213h.956l3.643 5.583v-5.583h.945zM93.73 35.535c-.817-.235-1.41-.523-1.782-.865a1.653 1.653 0 0 1-.559-1.266c0-.568.23-1.038.683-1.41.455-.371 1.045-.557 1.77-.557.495 0 .94.096 1.326.287.39.192.69.457.901.793.214.337.32.705.32 1.105h-.956c0-.437-.14-.781-.416-1.031-.278-.251-.67-.376-1.176-.376-.466 0-.834.104-1.096.31-.262.207-.393.494-.393.862 0 .294.124.544.374.746.25.204.674.39 1.274.558.6.169 1.068.355 1.407.559.337.202.59.439.753.71.163.27.245.59.245.956 0 .585-.23 1.054-.685 1.406-.456.35-1.065.526-1.827.526a3.4 3.4 0 0 1-1.389-.284c-.428-.19-.759-.45-.993-.78a1.908 1.908 0 0 1-.348-1.124h.956c0 .435.161.779.482 1.032.321.253.754.379 1.292.379.502 0 .886-.102 1.152-.307a.996.996 0 0 0 .404-.837c0-.354-.124-.627-.372-.821-.248-.193-.699-.384-1.348-.571M101.802 35.415h-3.128v2.556h3.633v.778h-4.582v-7.213h4.532v.777h-3.583v2.324h3.127z" mask="url(#b)"/>
    </g>
</svg>
